#N canvas 89 84 937 586 10;
#X text 268 34 Receives and sends audio to patch. Outgoing audio is
run through a compressor to provide some headroom if things get too
loud. Also sends values to the Organelle's OLED VU meter.;
#X obj 513 336 dac~;
#X obj 659 135 catch~ outR;
#X obj 480 135 catch~ outL;
#X obj 192 166 adc~, f 6;
#X obj 191 448 pack 0 0 0 0, f 18;
#X obj 285 245 s~ inR;
#X obj 110 244 s~ inL;
#X msg 191 470 sendtyped /oled/vumeter iiii \$1 \$2 \$3 \$4;
#X obj 190 512 s oscOut;
#X obj 483 233 *~;
#X obj 572 235 *~;
#X obj 810 69 r vol;
#X obj 810 122 *;
#X obj 810 95 t f f;
#X obj 314 403 * 12;
#X obj 314 378 sqrt;
#X obj 273 403 * 12;
#X obj 273 378 sqrt;
#X obj 191 378 sqrt;
#X obj 232 378 sqrt;
#X obj 481 157 tb_peakcomp~ -3 8 10 100 0;
#X obj 191 403 * 14;
#X obj 232 403 * 14;
#X obj 232 425 - 2;
#X obj 191 425 - 2;
#X obj 810 150 sig~;
#X obj 482 179 clip~ -1 1;
#X obj 571 179 clip~ -1 1;
#X obj 742 360 vsl 15 128 0 1 0 0 empty empty empty 0 -9 0 10 -262144
-1 -1 12700 1;
#X obj 742 326 r vol;
#X obj 74 431 timer;
#X floatatom 74 453 5 0 0 0 - - -, f 5;
#X obj 84 405 t b b;
#X obj 142 328 pvu~ 100;
#X obj 214 325 pvu~ 100;
#X obj 278 326 pvu~ 100;
#X obj 341 329 pvu~ 100;
#X obj 810 175 lop~ 5;
#X obj 408 336 throw~ postVolL;
#X obj 567 334 throw~ postVolR;
#X connect 2 0 21 1;
#X connect 3 0 21 0;
#X connect 4 0 7 0;
#X connect 4 0 34 0;
#X connect 4 1 6 0;
#X connect 4 1 35 0;
#X connect 5 0 8 0;
#X connect 8 0 9 0;
#X connect 10 0 1 0;
#X connect 10 0 36 0;
#X connect 10 0 39 0;
#X connect 11 0 1 1;
#X connect 11 0 37 0;
#X connect 11 0 40 0;
#X connect 12 0 14 0;
#X connect 13 0 26 0;
#X connect 14 0 13 0;
#X connect 14 1 13 1;
#X connect 15 0 5 3;
#X connect 16 0 15 0;
#X connect 17 0 5 2;
#X connect 18 0 17 0;
#X connect 19 0 22 0;
#X connect 20 0 23 0;
#X connect 21 0 27 0;
#X connect 21 1 28 0;
#X connect 22 0 25 0;
#X connect 23 0 24 0;
#X connect 24 0 5 1;
#X connect 25 0 5 0;
#X connect 26 0 38 0;
#X connect 27 0 10 0;
#X connect 28 0 11 0;
#X connect 30 0 29 0;
#X connect 31 0 32 0;
#X connect 33 0 31 0;
#X connect 33 1 31 1;
#X connect 34 0 19 0;
#X connect 34 0 33 0;
#X connect 35 0 20 0;
#X connect 36 0 18 0;
#X connect 37 0 16 0;
#X connect 38 0 11 1;
#X connect 38 0 10 1;
