#N canvas 86 128 705 449 10;
#X obj 14 87 r screenLine1;
#X obj 142 87 r screenLine2;
#X obj 274 87 r screenLine3;
#X obj 401 87 r screenLine4;
#X obj 14 165 s displayScreenLine1;
#X obj 532 165 s displayScreenLine5;
#X obj 402 165 s displayScreenLine4;
#X obj 273 165 s displayScreenLine3;
#X obj 144 165 s displayScreenLine2;
#X obj 14 114 list;
#X obj 272 114 list;
#X obj 532 112 list;
#X obj 400 112 list;
#X obj 145 114 list;
#X obj 532 87 r screenLine5;
#X obj 312 11 loadbang;
#X obj 214 11 r resetDisplay;
#X symbolatom 63 313 22 0 0 0 - displayScreenLine1 -, f 22;
#X symbolatom 63 335 22 0 0 0 - displayScreenLine2 -, f 22;
#X symbolatom 63 357 22 0 0 0 - displayScreenLine3 -, f 22;
#X symbolatom 63 379 22 0 0 0 - displayScreenLine4 -, f 22;
#X symbolatom 63 401 22 0 0 0 - displayScreenLine5 -, f 22;
#X obj 36 262 mrpeach/routeOSC /oled/invertline;
#X obj 36 239 route send;
#X obj 36 309 vradio 22 1 0 5 empty empty empty 0 -8 0 10 -262144 -1
-1 0;
#X obj 36 217 r oscOut;
#X obj 17 15 zexy;
#X obj 14 139 l2s;
#X obj 144 139 l2s;
#X obj 273 139 l2s;
#X obj 401 139 l2s;
#X obj 532 139 l2s;
#X msg 312 37 _;
#X connect 0 0 9 0;
#X connect 1 0 13 0;
#X connect 2 0 10 0;
#X connect 3 0 12 0;
#X connect 9 0 27 0;
#X connect 10 0 29 0;
#X connect 11 0 31 0;
#X connect 12 0 30 0;
#X connect 13 0 28 0;
#X connect 14 0 11 0;
#X connect 15 0 32 0;
#X connect 16 0 32 0;
#X connect 22 0 24 0;
#X connect 23 0 22 0;
#X connect 25 0 23 0;
#X connect 27 0 4 0;
#X connect 28 0 8 0;
#X connect 29 0 7 0;
#X connect 30 0 6 0;
#X connect 31 0 5 0;
#X connect 32 0 9 0;
#X connect 32 0 13 0;
#X connect 32 0 10 0;
#X connect 32 0 12 0;
#X connect 32 0 11 0;
#X coords 0 -1 1 1 200 130 2 30 300;
