#N canvas 240 30 651 615 10;
#X msg 110 403 \; pd dsp 1, f 10;
#X obj 110 367 delay 200;
#X obj 200 369 delay 100;
#X msg 200 473 send /patchLoaded 1;
#X obj 200 498 s oscOut;
#X obj 110 322 t b b;
#X obj 200 392 t b b;
#X obj 104 287 inlet;
#N canvas 274 23 1006 707 checkAndRecallKnobState 0;
#X obj 337 512 textfile;
#X obj 504 154 sel 1;
#X msg 201 216 rewind;
#X obj 140 119 bng 15 250 50 0 empty empty empty 17 7 0 10 -262144
-1 -1;
#X obj 337 536 unpack 0 0 0 0;
#X obj 140 141 t b b b;
#X obj 602 236 pack s 0 0 0 0;
#X obj 652 186 r knob1;
#X obj 710 189 r knob2;
#X obj 774 192 r knob3;
#X obj 839 189 r knob4;
#X msg 553 209 set;
#X obj 602 259 list trim;
#X obj 228 580 t b f;
#X obj 70 672 s recallState;
#X obj 504 94 r oscIn;
#X obj 429 222 s saveState;
#X obj 505 184 t b b b;
#X text 266 22 Save and recall knob states. We always save to the /tmp/state
directory which gets copied to the current patch or new patch whe the
Save or Save New system command is selected.;
#X obj 259 665 s knob1;
#X obj 290 645 s knob1Override;
#X obj 140 93 inlet;
#X obj 258 613 t f b;
#X obj 436 602 t f b;
#X obj 581 604 t f b;
#X obj 733 602 t f b;
#X obj 437 654 s knob2;
#X obj 468 634 s knob2Override;
#X obj 582 656 s knob3;
#X obj 613 635 s knob3Override;
#X obj 734 654 s knob4;
#X obj 764 634 s knob4Override;
#X msg 239 177 read /tmp/patch/knobs.txt;
#X msg 424 282 write /tmp/state/knobs.txt;
#X obj 504 124 mrpeach/routeOSC /saveState;
#X connect 0 0 4 0;
#X connect 1 0 17 0;
#X connect 2 0 0 0;
#X connect 3 0 5 0;
#X connect 4 0 13 0;
#X connect 4 1 23 0;
#X connect 4 2 24 0;
#X connect 4 3 25 0;
#X connect 5 0 0 0;
#X connect 5 1 2 0;
#X connect 5 2 32 0;
#X connect 6 0 12 0;
#X connect 7 0 6 1;
#X connect 8 0 6 2;
#X connect 9 0 6 3;
#X connect 10 0 6 4;
#X connect 11 0 6 0;
#X connect 12 0 0 0;
#X connect 13 0 14 0;
#X connect 13 1 22 0;
#X connect 15 0 34 0;
#X connect 17 0 16 0;
#X connect 17 1 33 0;
#X connect 17 2 11 0;
#X connect 21 0 3 0;
#X connect 22 0 19 0;
#X connect 22 1 20 0;
#X connect 23 0 26 0;
#X connect 23 1 27 0;
#X connect 24 0 28 0;
#X connect 24 1 29 0;
#X connect 25 0 30 0;
#X connect 25 1 31 0;
#X connect 32 0 0 0;
#X connect 33 0 0 0;
#X connect 34 0 1 0;
#X restore 232 427 pd checkAndRecallKnobState;
#X text 156 33 1 check for basic knobs.txt preset file to override
knob values;
#X text 158 71 2 signal mother host patch is loaded \, casuing initial
knob values to be sent.;
#X text 157 111 3 start audio;
#X obj 348 195 ggee/getdir;
#X obj 348 297 print;
#X obj 348 265 ggee/shell;
#X obj 393 103 r patchPath;
#X obj 393 124 symbol;
#X obj 348 223 pack s s;
#X msg 348 244 bash \$1/init-state.sh \$2;
#X msg 348 173 bang;
#X obj 480 328 r saveState;
#X obj 480 349 delay 100;
#X obj 435 443 ggee/getdir;
#X obj 435 545 print;
#X obj 435 513 ggee/shell;
#X obj 480 392 symbol;
#X obj 435 471 pack s s;
#X msg 435 421 bang;
#X msg 435 492 bash \$1/save-state.sh \$2;
#X msg 53 403 \; vol 1;
#X obj 513 370 r patchPath;
#X msg 480 370 bang;
#X connect 1 0 0 0;
#X connect 1 0 29 0;
#X connect 2 0 6 0;
#X connect 3 0 4 0;
#X connect 5 0 1 0;
#X connect 5 1 2 0;
#X connect 6 0 3 0;
#X connect 6 1 8 0;
#X connect 7 0 5 0;
#X connect 12 0 17 0;
#X connect 14 0 13 0;
#X connect 14 1 5 0;
#X connect 15 0 16 0;
#X connect 16 0 17 1;
#X connect 16 0 19 0;
#X connect 17 0 18 0;
#X connect 18 0 14 0;
#X connect 19 0 12 0;
#X connect 20 0 21 0;
#X connect 21 0 31 0;
#X connect 22 0 26 0;
#X connect 24 0 23 0;
#X connect 25 0 26 1;
#X connect 25 0 27 0;
#X connect 26 0 28 0;
#X connect 27 0 22 0;
#X connect 28 0 24 0;
#X connect 30 0 25 1;
#X connect 31 0 25 0;
