#N canvas 475 115 481 392 10;
#X obj 38 19 zexy;
#X obj 331 65 openpanel;
#X obj 331 175 s2l /;
#X obj 331 196 cyclone/zl len;
#X obj 250 217 cyclone/zl nth;
#X obj 331 238 l2s /;
#X obj 250 260 symbol;
#X obj 331 259 makefilename /%s;
#X msg 250 323 \; pd open \$1 \$2;
#X obj 250 301 pack s s;
#X obj 331 31 inlet;
#X obj 331 300 s patchPath;
#X obj 270 31 r patch;
#X obj 270 65 symbol;
#X obj 60 143 print Loading;
#X obj 17 144 bng 15 250 50 0 empty empty empty 17 7 0 10 -262144 -1
-1;
#X msg 17 171 \; pd-main.pd menuclose \;;
#X msg 331 114 bang;
#X obj 331 153 symbol;
#X obj 331 92 pipe 500;
#X msg 17 209 /enablepatchsub 0;
#X obj 17 234 s oscOut;
#X obj 98 20 r oscIn;
#X obj 98 42 mrpeach/routeOSC /loadpatch;
#X connect 1 0 14 0;
#X connect 1 0 15 0;
#X connect 1 0 18 1;
#X connect 1 0 19 0;
#X connect 2 0 3 0;
#X connect 2 0 4 0;
#X connect 3 0 4 1;
#X connect 4 0 6 0;
#X connect 4 1 5 0;
#X connect 5 0 7 0;
#X connect 6 0 9 0;
#X connect 7 0 9 1;
#X connect 7 0 11 0;
#X connect 9 0 8 0;
#X connect 10 0 1 0;
#X connect 12 0 13 0;
#X connect 13 0 14 0;
#X connect 13 0 15 0;
#X connect 13 0 18 1;
#X connect 13 0 19 0;
#X connect 15 0 16 0;
#X connect 15 0 20 0;
#X connect 17 0 18 0;
#X connect 18 0 2 0;
#X connect 19 0 17 0;
#X connect 20 0 21 0;
#X connect 22 0 23 0;
#X connect 23 0 13 0;
