#N canvas 487 115 450 300 10;
#X obj 38 19 zexy;
#X obj 216 65 openpanel;
#X obj 216 86 s2l /;
#X obj 216 107 cyclone/zl len;
#X obj 135 128 cyclone/zl nth;
#X obj 216 149 l2s /;
#X obj 135 149 symbol;
#X obj 216 170 makefilename /%s;
#X msg 135 234 \; pd open \$1 \$2;
#X obj 135 212 pack s s;
#X obj 216 31 inlet;
#X obj 216 211 s patchPath;
#X obj 155 31 r patch;
#X obj 155 65 symbol;
#X obj 38 128 print Loading;
#X connect 1 0 2 0;
#X connect 1 0 14 0;
#X connect 2 0 3 0;
#X connect 2 0 4 0;
#X connect 3 0 4 1;
#X connect 4 0 6 0;
#X connect 4 1 5 0;
#X connect 5 0 7 0;
#X connect 6 0 9 0;
#X connect 7 0 9 1;
#X connect 7 0 11 0;
#X connect 9 0 8 0;
#X connect 10 0 1 0;
#X connect 12 0 13 0;
#X connect 13 0 2 0;
#X connect 13 0 14 0;
