#N canvas 130 96 523 566 10;
#X obj 136 396 s oscOut;
#X msg 109 336 send /gohome 1;
#X obj 228 287 r enableSubMenu;
#X obj 109 311 bang;
#X obj 109 289 r goHome;
#X msg 228 343 send /enablepatchsub 1;
#X obj 228 315 bang;
#X obj 133 77 r oscIn;
#N canvas 5 50 450 300 speedlim50 0;
#X obj 139 116 spigot 1;
#X msg 188 90 0;
#X msg 234 91 1;
#X obj 135 59 t b f;
#X obj 131 147 t b f;
#X obj 184 147 delay 50;
#X obj 130 25 inlet;
#X obj 150 210 outlet;
#X connect 0 0 4 0;
#X connect 1 0 0 1;
#X connect 2 0 0 1;
#X connect 3 0 1 0;
#X connect 3 1 0 0;
#X connect 4 0 5 0;
#X connect 4 1 7 0;
#X connect 5 0 2 0;
#X connect 6 0 3 0;
#X restore 133 129 pd speedlim50;
#X obj 133 157 s enc;
#X obj 264 130 s encbut;
#X obj 133 103 routeOSC /encoder/turn /encoder/button;
#X text 64 10 If we get a bang to enableSubMenu we start recieving
messages from the selector encoder. A goHome menu returns to the Organelle
main menu.;
#X connect 1 0 0 0;
#X connect 2 0 6 0;
#X connect 3 0 1 0;
#X connect 4 0 3 0;
#X connect 5 0 0 0;
#X connect 6 0 5 0;
#X connect 7 0 11 0;
#X connect 8 0 9 0;
#X connect 11 0 8 0;
#X connect 11 1 10 0;
