#N canvas 0 23 1280 707 10;
#X obj 51 227 spigot 1;
#X obj 139 183 r midiInGate;
#X obj 51 257 t f b;
#X obj 51 295 / 127;
#X obj 51 317 s knob1;
#X obj 103 290 s knob1Override;
#X obj 51 188 change;
#X obj 250 223 spigot 1;
#X obj 338 179 r midiInGate;
#X obj 250 253 t f b;
#X obj 250 291 / 127;
#X obj 250 184 change;
#X obj 444 219 spigot 1;
#X obj 532 175 r midiInGate;
#X obj 444 249 t f b;
#X obj 444 287 / 127;
#X obj 444 180 change;
#X obj 642 218 spigot 1;
#X obj 730 174 r midiInGate;
#X obj 642 248 t f b;
#X obj 642 286 / 127;
#X obj 642 184 change;
#X obj 250 313 s knob2;
#X obj 444 309 s knob3;
#X obj 642 308 s knob4;
#X obj 302 286 s knob2Override;
#X obj 497 282 s knob3Override;
#X obj 694 280 s knob4Override;
#X obj 891 323 spigot 1;
#X obj 839 607 spigot 1;
#X obj 839 639 unpack;
#X obj 839 671 noteout;
#X obj 960 288 r midiInGate;
#X obj 891 356 s notes;
#X obj 892 570 r midiOutGate;
#X obj 48 631 i;
#X obj 48 653 change;
#X obj 48 585 spigot 1;
#X obj 101 553 r midiOutGate;
#X obj 220 633 i;
#X obj 220 655 change;
#X obj 220 587 spigot 1;
#X obj 273 555 r midiOutGate;
#X obj 390 637 i;
#X obj 390 659 change;
#X obj 390 591 spigot 1;
#X obj 443 559 r midiOutGate;
#X obj 568 634 i;
#X obj 568 656 change;
#X obj 568 588 spigot 1;
#X obj 621 556 r midiOutGate;
#X obj 568 612 / 8;
#X obj 390 615 / 8;
#X obj 220 611 / 8;
#X obj 48 609 / 8;
#X obj 48 675 ctlout 21 1;
#X obj 220 677 ctlout 22 1;
#X obj 388 681 ctlout 23 1;
#X obj 568 678 ctlout 24 1;
#X obj 48 512 r knob1Raw;
#X obj 220 523 r knob2Raw;
#X obj 390 519 r knob3Raw;
#X obj 568 529 r knob4Raw;
#X obj 839 533 r notesRaw;
#X text 670 101 MIDI in;
#X text 570 473 MIDI out;
#X obj 1091 641 i;
#X obj 1091 663 change;
#X obj 1091 595 spigot 1;
#X obj 1144 563 r midiOutGate;
#X obj 1091 536 r auxRaw;
#X obj 1091 619 * 127;
#X obj 1091 689 ctlout 25 1;
#X obj 1092 210 spigot 1;
#X obj 1180 166 r midiInGate;
#X obj 1092 298 s aux;
#X obj 1272 632 i;
#X obj 1272 654 change;
#X obj 1272 586 spigot 1;
#X obj 1325 554 r midiOutGate;
#X obj 1272 610 * 127;
#X obj 1272 527 r fsRaw;
#X obj 1272 680 ctlout 64 1;
#X obj 1285 210 spigot 1;
#X obj 1373 160 r midiInGate;
#X obj 1285 307 s fs;
#X obj 1285 240 >= 64;
#X obj 1285 272 change;
#X obj 1092 239 >= 64;
#X obj 1092 271 change;
#N canvas 627 27 653 703 program-change-in 0;
#X obj 116 35 pgmin;
#X obj 141 361 s oscOut;
#X msg 141 332 send /pgmchg \$1;
#X obj 141 171 spigot 1;
#X obj 194 111 r midiInGate;
#X obj 232 139 loadbang;
#X obj 141 231 spigot 0;
#X msg 232 196 1;
#X obj 232 167 delay 500;
#X msg 227 234 0;
#X text 271 220 speed limit these;
#X text 43 4 program change in loads new patch;
#X obj 141 265 t f b b;
#X obj 141 298 i;
#N canvas 1101 410 681 530 chsel 0;
#X obj 159 28 r midiCh;
#X obj 67 61 swap;
#X obj 67 86 pack;
#X obj 44 29 inlet;
#X obj 97 28 inlet;
#X obj 67 347 outlet;
#X obj 67 169 route 1;
#X obj 120 211 spigot;
#X obj 159 167 == 0;
#X obj 120 234 unpack;
#X connect 0 0 6 1;
#X connect 0 0 8 0;
#X connect 1 0 2 0;
#X connect 1 1 2 1;
#X connect 2 0 6 0;
#X connect 3 0 1 0;
#X connect 4 0 1 1;
#X connect 6 0 5 0;
#X connect 6 1 7 0;
#X connect 7 0 9 0;
#X connect 8 0 7 1;
#X connect 9 1 5 0;
#X restore 115 78 pd chsel;
#X connect 0 0 14 0;
#X connect 0 1 14 1;
#X connect 2 0 1 0;
#X connect 3 0 6 0;
#X connect 4 0 3 1;
#X connect 5 0 8 0;
#X connect 6 0 12 0;
#X connect 7 0 6 1;
#X connect 8 0 7 0;
#X connect 9 0 6 1;
#X connect 12 0 13 0;
#X connect 12 1 8 0;
#X connect 12 2 9 0;
#X connect 13 0 2 0;
#X connect 14 0 3 0;
#X restore 1338 58 pd program-change-in;
#X obj 1474 635 i;
#X obj 1474 657 change;
#X obj 1474 589 spigot 1;
#X obj 1527 557 r midiOutGate;
#X obj 1474 613 / 8;
#X obj 1474 679 ctlout 26 1;
#X obj 1474 530 r expRaw;
#X obj 1550 210 spigot 1;
#X obj 1638 166 r midiInGate;
#X obj 1550 240 t f b;
#X obj 1550 278 / 127;
#X obj 1550 187 change;
#X obj 1602 273 s expOverride;
#X obj 1550 300 s exp;
#X text 709 472 the 'raw' stuff comes directly from built in controls
;
#X text 659 31 This patch provides the default MIDI behavior. All MIDI
output and input can be suppressed by sending a 0 to midiOutGate and
midiInGate respectively.;
#X text 1351 30 program change loads new patches;
#X obj 51 116 ctlin 21;
#X obj 892 154 notein;
#N canvas 537 318 743 412 chsel 0;
#X obj 159 28 r midiCh;
#X obj 67 61 swap;
#X obj 67 86 pack;
#X obj 44 29 inlet;
#X obj 97 28 inlet;
#X obj 67 347 outlet;
#X obj 67 169 route 1;
#X obj 120 211 spigot;
#X obj 159 167 == 0;
#X obj 120 234 unpack;
#X connect 0 0 6 1;
#X connect 0 0 8 0;
#X connect 1 0 2 0;
#X connect 1 1 2 1;
#X connect 2 0 6 0;
#X connect 3 0 1 0;
#X connect 4 0 1 1;
#X connect 6 0 5 0;
#X connect 6 1 7 0;
#X connect 7 0 9 0;
#X connect 8 0 7 1;
#X connect 9 1 5 0;
#X restore 51 147 pd chsel;
#N canvas 6 50 1280 956 chsel 0;
#X obj 187 417 pack;
#X obj 207 372 f;
#X obj 168 372 f;
#X obj 237 123 f;
#X obj 152 87 t b f;
#X obj 237 145 sel 1;
#X obj 237 325 t b b;
#X obj 342 33 r midiCh;
#X obj 117 35 inlet;
#X obj 199 37 inlet;
#X obj 274 39 inlet;
#X obj 186 444 outlet;
#X obj 325 173 spigot;
#X obj 364 129 == 0;
#X obj 302 246 bng 15 250 50 0 empty empty empty 17 7 0 10 -262144
-1 -1;
#X connect 0 0 11 0;
#X connect 1 0 0 1;
#X connect 2 0 0 0;
#X connect 3 0 5 0;
#X connect 4 0 3 0;
#X connect 4 1 2 1;
#X connect 5 0 6 0;
#X connect 5 1 12 0;
#X connect 6 0 2 0;
#X connect 6 1 1 0;
#X connect 7 0 5 1;
#X connect 7 0 13 0;
#X connect 8 0 4 0;
#X connect 9 0 1 1;
#X connect 10 0 3 1;
#X connect 12 0 14 0;
#X connect 13 0 12 1;
#X connect 14 0 6 0;
#X restore 885 226 pd chsel;
#X obj 164 117 r midiCh;
#X floatatom 164 139 5 0 0 0 - - -, f 5;
#X obj 250 119 ctlin 22;
#X obj 444 128 ctlin 23;
#X obj 642 132 ctlin 24;
#X obj 1092 136 ctlin 25;
#X obj 1285 138 ctlin 64;
#X obj 1550 136 ctlin 26;
#X obj 1092 186 change;
#X obj 1285 184 change;
#X obj 1159 23 r oscIn;
#X obj 1159 45 routeOSC /midich;
#X floatatom 1159 67 5 0 0 0 - - -, f 5;
#X obj 1124 96 s midiCh;
#X obj 370 18 r oscIn;
#X floatatom 370 62 5 0 0 0 - - -, f 5;
#X obj 370 40 routeOSC /midiInGate;
#X obj 370 81 s midiInGate;
#X obj 236 394 r oscIn;
#X floatatom 236 438 5 0 0 0 - - -, f 5;
#X obj 236 416 routeOSC /midiOutGate;
#X obj 236 457 s midiOutGate;
#X obj 62 393 r oscIn;
#X floatatom 62 437 5 0 0 0 - - -, f 5;
#X obj 62 415 routeOSC /midiOutCh;
#X obj 62 456 s midiOutCh;
#X obj 228 17 r oscIn;
#X floatatom 228 61 5 0 0 0 - - -, f 5;
#X obj 228 80 s midiCh;
#X obj 228 39 routeOSC /midiInCh;
#X obj 1194 97 s midiOutCh;
#X obj 122 641 r midiOutCh;
#X obj 294 645 r midiOutCh;
#X obj 462 645 r midiOutCh;
#X obj 642 631 r midiOutCh;
#X obj 903 637 r midiOutCh;
#X obj 1165 653 r midiOutCh;
#X obj 1346 645 r midiOutCh;
#X obj 1548 646 r midiOutCh;
#X text 1129 5 Legacy \, use midiInCh and midiOutCh;
#N canvas 312 499 743 412 chsel 0;
#X obj 159 28 r midiCh;
#X obj 67 61 swap;
#X obj 67 86 pack;
#X obj 44 29 inlet;
#X obj 97 28 inlet;
#X obj 67 347 outlet;
#X obj 67 169 route 1;
#X obj 120 211 spigot;
#X obj 159 167 == 0;
#X obj 120 234 unpack;
#X connect 0 0 6 1;
#X connect 0 0 8 0;
#X connect 1 0 2 0;
#X connect 1 1 2 1;
#X connect 2 0 6 0;
#X connect 3 0 1 0;
#X connect 4 0 1 1;
#X connect 6 0 5 0;
#X connect 6 1 7 0;
#X connect 7 0 9 0;
#X connect 8 0 7 1;
#X connect 9 1 5 0;
#X restore 250 151 pd chsel;
#N canvas 312 499 743 412 chsel 0;
#X obj 159 28 r midiCh;
#X obj 67 61 swap;
#X obj 67 86 pack;
#X obj 44 29 inlet;
#X obj 97 28 inlet;
#X obj 67 347 outlet;
#X obj 67 169 route 1;
#X obj 120 211 spigot;
#X obj 159 167 == 0;
#X obj 120 234 unpack;
#X connect 0 0 6 1;
#X connect 0 0 8 0;
#X connect 1 0 2 0;
#X connect 1 1 2 1;
#X connect 2 0 6 0;
#X connect 3 0 1 0;
#X connect 4 0 1 1;
#X connect 6 0 5 0;
#X connect 6 1 7 0;
#X connect 7 0 9 0;
#X connect 8 0 7 1;
#X connect 9 1 5 0;
#X restore 443 153 pd chsel;
#N canvas 312 499 743 412 chsel 0;
#X obj 159 28 r midiCh;
#X obj 67 61 swap;
#X obj 67 86 pack;
#X obj 44 29 inlet;
#X obj 97 28 inlet;
#X obj 67 347 outlet;
#X obj 67 169 route 1;
#X obj 120 211 spigot;
#X obj 159 167 == 0;
#X obj 120 234 unpack;
#X connect 0 0 6 1;
#X connect 0 0 8 0;
#X connect 1 0 2 0;
#X connect 1 1 2 1;
#X connect 2 0 6 0;
#X connect 3 0 1 0;
#X connect 4 0 1 1;
#X connect 6 0 5 0;
#X connect 6 1 7 0;
#X connect 7 0 9 0;
#X connect 8 0 7 1;
#X connect 9 1 5 0;
#X restore 640 157 pd chsel;
#N canvas 312 499 743 412 chsel 0;
#X obj 159 28 r midiCh;
#X obj 67 61 swap;
#X obj 67 86 pack;
#X obj 44 29 inlet;
#X obj 97 28 inlet;
#X obj 67 347 outlet;
#X obj 67 169 route 1;
#X obj 120 211 spigot;
#X obj 159 167 == 0;
#X obj 120 234 unpack;
#X connect 0 0 6 1;
#X connect 0 0 8 0;
#X connect 1 0 2 0;
#X connect 1 1 2 1;
#X connect 2 0 6 0;
#X connect 3 0 1 0;
#X connect 4 0 1 1;
#X connect 6 0 5 0;
#X connect 6 1 7 0;
#X connect 7 0 9 0;
#X connect 8 0 7 1;
#X connect 9 1 5 0;
#X restore 1092 162 pd chsel;
#N canvas 312 499 743 412 chsel 0;
#X obj 159 28 r midiCh;
#X obj 67 61 swap;
#X obj 67 86 pack;
#X obj 44 29 inlet;
#X obj 97 28 inlet;
#X obj 67 347 outlet;
#X obj 67 169 route 1;
#X obj 120 211 spigot;
#X obj 159 167 == 0;
#X obj 120 234 unpack;
#X connect 0 0 6 1;
#X connect 0 0 8 0;
#X connect 1 0 2 0;
#X connect 1 1 2 1;
#X connect 2 0 6 0;
#X connect 3 0 1 0;
#X connect 4 0 1 1;
#X connect 6 0 5 0;
#X connect 6 1 7 0;
#X connect 7 0 9 0;
#X connect 8 0 7 1;
#X connect 9 1 5 0;
#X restore 1285 162 pd chsel;
#N canvas 312 499 743 412 chsel 0;
#X obj 159 28 r midiCh;
#X obj 67 61 swap;
#X obj 67 86 pack;
#X obj 44 29 inlet;
#X obj 97 28 inlet;
#X obj 67 347 outlet;
#X obj 67 169 route 1;
#X obj 120 211 spigot;
#X obj 159 167 == 0;
#X obj 120 234 unpack;
#X connect 0 0 6 1;
#X connect 0 0 8 0;
#X connect 1 0 2 0;
#X connect 1 1 2 1;
#X connect 2 0 6 0;
#X connect 3 0 1 0;
#X connect 4 0 1 1;
#X connect 6 0 5 0;
#X connect 6 1 7 0;
#X connect 7 0 9 0;
#X connect 8 0 7 1;
#X connect 9 1 5 0;
#X restore 1550 160 pd chsel;
#X obj 1740 210 spigot 1;
#X obj 1828 166 r midiInGate;
#X obj 1740 240 t f b;
#X obj 1740 278 / 127;
#X obj 1740 187 change;
#N canvas 312 499 743 412 chsel 0;
#X obj 159 28 r midiCh;
#X obj 67 61 swap;
#X obj 67 86 pack;
#X obj 44 29 inlet;
#X obj 97 28 inlet;
#X obj 67 347 outlet;
#X obj 67 169 route 1;
#X obj 120 211 spigot;
#X obj 159 167 == 0;
#X obj 120 234 unpack;
#X connect 0 0 6 1;
#X connect 0 0 8 0;
#X connect 1 0 2 0;
#X connect 1 1 2 1;
#X connect 2 0 6 0;
#X connect 3 0 1 0;
#X connect 4 0 1 1;
#X connect 6 0 5 0;
#X connect 6 1 7 0;
#X connect 7 0 9 0;
#X connect 8 0 7 1;
#X connect 9 1 5 0;
#X restore 1740 160 pd chsel;
#X obj 1740 136 ctlin 7;
#X obj 1740 300 s vol;
#X obj 1792 273 s volOverride;
#X obj 1922 210 spigot 1;
#X obj 2010 166 r midiInGate;
#X obj 1922 239 >= 64;
#X obj 1922 186 change;
#N canvas 312 499 743 412 chsel 0;
#X obj 159 28 r midiCh;
#X obj 67 61 swap;
#X obj 67 86 pack;
#X obj 44 29 inlet;
#X obj 97 28 inlet;
#X obj 67 347 outlet;
#X obj 67 169 route 1;
#X obj 120 211 spigot;
#X obj 159 167 == 0;
#X obj 120 234 unpack;
#X connect 0 0 6 1;
#X connect 0 0 8 0;
#X connect 1 0 2 0;
#X connect 1 1 2 1;
#X connect 2 0 6 0;
#X connect 3 0 1 0;
#X connect 4 0 1 1;
#X connect 6 0 5 0;
#X connect 6 1 7 0;
#X connect 7 0 9 0;
#X connect 8 0 7 1;
#X connect 9 1 5 0;
#X restore 1922 162 pd chsel;
#X obj 1922 136 ctlin 27;
#X obj 1922 298 s enc;
#X obj 2102 210 spigot 1;
#X obj 2190 166 r midiInGate;
#X obj 2102 239 >= 64;
#X obj 2102 186 change;
#N canvas 312 499 743 412 chsel 0;
#X obj 159 28 r midiCh;
#X obj 67 61 swap;
#X obj 67 86 pack;
#X obj 44 29 inlet;
#X obj 97 28 inlet;
#X obj 67 347 outlet;
#X obj 67 169 route 1;
#X obj 120 211 spigot;
#X obj 159 167 == 0;
#X obj 120 234 unpack;
#X connect 0 0 6 1;
#X connect 0 0 8 0;
#X connect 1 0 2 0;
#X connect 1 1 2 1;
#X connect 2 0 6 0;
#X connect 3 0 1 0;
#X connect 4 0 1 1;
#X connect 6 0 5 0;
#X connect 6 1 7 0;
#X connect 7 0 9 0;
#X connect 8 0 7 1;
#X connect 9 1 5 0;
#X restore 2102 162 pd chsel;
#X obj 2102 136 ctlin 28;
#X obj 2102 298 s encbut;
#X connect 0 0 2 0;
#X connect 1 0 0 1;
#X connect 2 0 3 0;
#X connect 2 1 5 0;
#X connect 3 0 4 0;
#X connect 6 0 0 0;
#X connect 7 0 9 0;
#X connect 8 0 7 1;
#X connect 9 0 10 0;
#X connect 9 1 25 0;
#X connect 10 0 22 0;
#X connect 11 0 7 0;
#X connect 12 0 14 0;
#X connect 13 0 12 1;
#X connect 14 0 15 0;
#X connect 14 1 26 0;
#X connect 15 0 23 0;
#X connect 16 0 12 0;
#X connect 17 0 19 0;
#X connect 18 0 17 1;
#X connect 19 0 20 0;
#X connect 19 1 27 0;
#X connect 20 0 24 0;
#X connect 21 0 17 0;
#X connect 28 0 33 0;
#X connect 29 0 30 0;
#X connect 30 0 31 0;
#X connect 30 1 31 1;
#X connect 32 0 28 1;
#X connect 34 0 29 1;
#X connect 35 0 36 0;
#X connect 36 0 55 0;
#X connect 37 0 54 0;
#X connect 38 0 37 1;
#X connect 39 0 40 0;
#X connect 40 0 56 0;
#X connect 41 0 53 0;
#X connect 42 0 41 1;
#X connect 43 0 44 0;
#X connect 44 0 57 0;
#X connect 45 0 52 0;
#X connect 46 0 45 1;
#X connect 47 0 48 0;
#X connect 48 0 58 0;
#X connect 49 0 51 0;
#X connect 50 0 49 1;
#X connect 51 0 47 0;
#X connect 52 0 43 0;
#X connect 53 0 39 0;
#X connect 54 0 35 0;
#X connect 59 0 37 0;
#X connect 60 0 41 0;
#X connect 61 0 45 0;
#X connect 62 0 49 0;
#X connect 63 0 29 0;
#X connect 66 0 67 0;
#X connect 67 0 72 0;
#X connect 68 0 71 0;
#X connect 69 0 68 1;
#X connect 70 0 68 0;
#X connect 71 0 66 0;
#X connect 73 0 88 0;
#X connect 74 0 73 1;
#X connect 76 0 77 0;
#X connect 77 0 82 0;
#X connect 78 0 80 0;
#X connect 79 0 78 1;
#X connect 80 0 76 0;
#X connect 81 0 78 0;
#X connect 83 0 86 0;
#X connect 84 0 83 1;
#X connect 86 0 87 0;
#X connect 87 0 85 0;
#X connect 88 0 89 0;
#X connect 89 0 75 0;
#X connect 91 0 92 0;
#X connect 92 0 96 0;
#X connect 93 0 95 0;
#X connect 94 0 93 1;
#X connect 95 0 91 0;
#X connect 97 0 93 0;
#X connect 98 0 100 0;
#X connect 99 0 98 1;
#X connect 100 0 101 0;
#X connect 100 1 103 0;
#X connect 101 0 104 0;
#X connect 102 0 98 0;
#X connect 108 0 110 0;
#X connect 108 1 110 1;
#X connect 109 0 111 0;
#X connect 109 1 111 1;
#X connect 109 2 111 2;
#X connect 110 0 6 0;
#X connect 111 0 28 0;
#X connect 112 0 113 0;
#X connect 114 0 152 0;
#X connect 114 1 152 1;
#X connect 115 0 153 0;
#X connect 115 1 153 1;
#X connect 116 0 154 0;
#X connect 116 1 154 1;
#X connect 117 0 155 0;
#X connect 117 1 155 1;
#X connect 118 0 156 0;
#X connect 118 1 156 1;
#X connect 119 0 157 0;
#X connect 119 1 157 1;
#X connect 120 0 73 0;
#X connect 121 0 83 0;
#X connect 122 0 123 0;
#X connect 123 0 124 0;
#X connect 124 0 125 0;
#X connect 124 0 142 0;
#X connect 126 0 128 0;
#X connect 127 0 129 0;
#X connect 128 0 127 0;
#X connect 130 0 132 0;
#X connect 131 0 133 0;
#X connect 132 0 131 0;
#X connect 134 0 136 0;
#X connect 135 0 137 0;
#X connect 136 0 135 0;
#X connect 138 0 141 0;
#X connect 139 0 140 0;
#X connect 141 0 139 0;
#X connect 143 0 55 2;
#X connect 144 0 56 2;
#X connect 145 0 57 2;
#X connect 146 0 58 2;
#X connect 147 0 31 2;
#X connect 148 0 72 2;
#X connect 149 0 82 2;
#X connect 150 0 96 2;
#X connect 152 0 11 0;
#X connect 153 0 16 0;
#X connect 154 0 21 0;
#X connect 155 0 120 0;
#X connect 156 0 121 0;
#X connect 157 0 102 0;
#X connect 158 0 160 0;
#X connect 159 0 158 1;
#X connect 160 0 161 0;
#X connect 160 1 166 0;
#X connect 161 0 165 0;
#X connect 162 0 158 0;
#X connect 163 0 162 0;
#X connect 164 0 163 0;
#X connect 164 1 163 1;
#X connect 167 0 169 0;
#X connect 168 0 167 1;
#X connect 169 0 173 0;
#X connect 170 0 167 0;
#X connect 171 0 170 0;
#X connect 172 0 171 0;
#X connect 172 1 171 1;
#X connect 174 0 176 0;
#X connect 175 0 174 1;
#X connect 176 0 180 0;
#X connect 177 0 174 0;
#X connect 178 0 177 0;
#X connect 179 0 178 0;
#X connect 179 1 178 1;
