#N struct 1010-template-drawthings float x float y float c float cf
float w;
#N canvas 270 126 1274 784 10;
#X obj 165 -89 inlet;
#N canvas 1374 295 519 413 \$0-template 0;
#X obj 0 0 struct 1010-template-drawthings float x float y float c
float cf float w;
#X restore 58 -23 pd \$0-template;
#N canvas 70 243 548 538 init 0;
#X obj 158 362 pointer;
#X obj 10 192 f \$0;
#X msg 158 331 traverse pd-\$1-data \, bang;
#X obj 12 223 t b f f;
#X msg 154 240 \; pd-\$1-data clear;
#X obj 22 155 bng 15 250 50 0 empty empty empty 17 7 0 10 -262144 -1
-1;
#X obj 12 111 delay 1000;
#X obj 11 67 r \$0-reinit;
#X obj 9 425 append \$0-template-drawthings x y c cf w;
#X msg 9 303 0 0 900 99 1;
#X connect 0 0 8 5;
#X connect 1 0 3 0;
#X connect 2 0 0 0;
#X connect 3 0 9 0;
#X connect 3 1 2 0;
#X connect 3 2 4 0;
#X connect 5 0 1 0;
#X connect 6 0 1 0;
#X connect 7 0 6 0;
#X connect 9 0 8 0;
#X restore 1 -23 pd init;
#N canvas 184 292 766 590 re-initialize 0;
#X obj 107 438 s pd-\$0-template;
#X obj 105 224 f \$0;
#X msg 139 316 \; pd-\$1-template clear;
#X obj 105 105 bng 30 250 50 0 empty empty New 6 15 0 10 -4034 -257985
-258113;
#X obj 106 252 t f f;
#X obj 156 197 s \$0-reinit;
#X msg 106 374 obj 0 0 struct \$1-template-drawthings float x float
y float c float cf float w;
#X obj 105 75 inlet;
#X connect 1 0 4 0;
#X connect 3 0 1 0;
#X connect 3 0 5 0;
#X connect 4 0 6 0;
#X connect 4 1 2 0;
#X connect 6 0 0 0;
#X connect 7 0 3 0;
#X coords 0 -1 1 1 40 40 2 100 100;
#X restore 165 -46 pd re-initialize;
#N canvas 3 182 1527 820 draw-objects 0;
#X obj 99 750 s pd-\$0-template;
#X obj 98 25 inlet;
#X msg 96 132 obj 50 50 drawpolygon \$5 \$6 \$1 \$2 \$3 \$4;
#X msg 150 162 obj 50 50 drawpolygon \$5 \$6 \$1 \$2 \$3 \$2 \$3 \$4
\$1 \$4 \$1 \$2;
#X msg 202 192 obj 50 50 filledpolygon \$5 \$6 \$7 \$1 \$2 \$3 \$2
\$3 \$4 \$1 \$4 \$1 \$2;
#X msg 255 235 obj 50 50 drawcurve \$5 \$6 \$1 \$2 \$3 \$2 \$3 \$4
\$1 \$4 \$1 \$2;
#X msg 307 263 obj 50 50 filledcurve \$5 \$6 \$7 \$1 \$2 \$3 \$2 \$3
\$4 \$1 \$4 \$1 \$2;
#X obj 359 292 unpack f f f f;
#X msg 359 394 obj 50 50 filledpolygon \$5 \$5 \$6 \$1 \$2 \$3 \$4
;
#X obj 359 367 pack f f f f f f;
#X obj 368 322 + 0.001;
#X obj 390 343 + 0.001;
#X msg 457 459 obj 50 50 filledpolygon \$17 \$18 \$19 \$1 \$2 \$3 \$4
\$5 \$6 \$7 \$8 \$9 \$10 \$11 \$12 \$13 \$14 \$15 \$16;
#X msg 419 422 obj 50 50 drawpolygon \$17 \$18 \$1 \$2 \$3 \$4 \$5
\$6 \$7 \$8 \$9 \$10 \$11 \$12 \$13 \$14 \$15 \$16;
#X msg 1096 342 obj 50 50 filledpolygon \$181 \$182 \$183 \$1 \$2 \$3
\$4 \$5 \$6 \$7 \$8 \$9 \$10 \$11 \$12 \$13 \$14 \$15 \$16 \$17 \$18
\$19 \$20 \$21 \$22 \$23 \$24 \$25 \$26 \$27 \$28 \$29 \$30 \$31 \$32
\$33 \$34 \$35 \$36 \$37 \$38 \$39 \$40 \$41 \$42 \$43 \$44 \$45 \$46
\$47 \$48 \$49 \$50 \$51 \$52 \$53 \$54 \$55 \$56 \$57 \$58 \$59 \$60
\$61 \$62 \$63 \$64 \$65 \$66 \$67 \$68 \$69 \$70 \$71 \$72 \$73 \$74
\$75 \$76 \$77 \$78 \$79 \$80 \$81 \$82 \$83 \$84 \$85 \$86 \$87 \$88
\$89 \$90 \$91 \$92 \$93 \$94 \$95 \$96 \$97 \$98 \$99 \$100 \$101
\$102 \$103 \$104 \$105 \$106 \$107 \$108 \$109 \$110 \$111 \$112 \$113
\$114 \$115 \$116 \$117 \$118 \$119 \$120 \$121 \$122 \$123 \$124 \$125
\$126 \$127 \$128 \$129 \$130 \$131 \$132 \$133 \$134 \$135 \$136 \$137
\$138 \$139 \$140 \$141 \$142 \$143 \$144 \$145 \$146 \$147 \$148 \$149
\$150 \$151 \$152 \$153 \$154 \$155 \$156 \$157 \$158 \$159 \$160 \$161
\$162 \$163 \$164 \$165 \$166 \$167 \$168 \$169 \$170 \$171 \$172 \$173
\$174 \$175 \$176 \$177 \$178 \$179 \$180;
#X msg 1097 77 obj 50 50 drawpolygon \$181 \$182 \$1 \$2 \$3 \$4 \$5
\$6 \$7 \$8 \$9 \$10 \$11 \$12 \$13 \$14 \$15 \$16 \$17 \$18 \$19 \$20
\$21 \$22 \$23 \$24 \$25 \$26 \$27 \$28 \$29 \$30 \$31 \$32 \$33 \$34
\$35 \$36 \$37 \$38 \$39 \$40 \$41 \$42 \$43 \$44 \$45 \$46 \$47 \$48
\$49 \$50 \$51 \$52 \$53 \$54 \$55 \$56 \$57 \$58 \$59 \$60 \$61 \$62
\$63 \$64 \$65 \$66 \$67 \$68 \$69 \$70 \$71 \$72 \$73 \$74 \$75 \$76
\$77 \$78 \$79 \$80 \$81 \$82 \$83 \$84 \$85 \$86 \$87 \$88 \$89 \$90
\$91 \$92 \$93 \$94 \$95 \$96 \$97 \$98 \$99 \$100 \$101 \$102 \$103
\$104 \$105 \$106 \$107 \$108 \$109 \$110 \$111 \$112 \$113 \$114 \$115
\$116 \$117 \$118 \$119 \$120 \$121 \$122 \$123 \$124 \$125 \$126 \$127
\$128 \$129 \$130 \$131 \$132 \$133 \$134 \$135 \$136 \$137 \$138 \$139
\$140 \$141 \$142 \$143 \$144 \$145 \$146 \$147 \$148 \$149 \$150 \$151
\$152 \$153 \$154 \$155 \$156 \$157 \$158 \$159 \$160 \$161 \$162 \$163
\$164 \$165 \$166 \$167 \$168 \$169 \$170 \$171 \$172 \$173 \$174 \$175
\$176 \$177 \$178 \$179 \$180;
#N canvas 80 192 1336 894 arc 0;
#X obj 112 317 sin;
#X obj 153 317 cos;
#X obj 112 289 t f f;
#X obj 112 342 *;
#X obj 153 343 *;
#X floatatom 184 270 5 0 0 0 - - -;
#X floatatom 100 169 5 0 60 0 - - -;
#X obj 113 464 pack f f;
#X msg 125 529 add2 \$1 \$2;
#X obj 99 95 until;
#X obj 95 133 float;
#X obj 138 134 + 1;
#X msg 144 70 0;
#X obj 107 6 bng 15 250 50 0 empty empty empty 17 7 0 10 -262144 -1
-1;
#X obj 110 33 t b b;
#X obj 109 393 + 200;
#X floatatom 228 273 5 0 0 0 - - -;
#X obj 161 389 + 300;
#X obj 563 250 delay 100;
#X msg 101 68 90;
#X msg 638 315 437.987 246.409 437.593 246.115 437.197 245.828 436.799
245.548 436.398 245.274 435.996 245.006 435.592 244.746 435.186 244.492
434.778 244.245 434.368 244.004 433.956 243.771 433.543 243.544 433.128
243.324 432.712 243.111 432.294 242.904 431.875 242.705 431.454 242.512
431.031 242.327 430.608 242.148 430.183 241.977 429.757 241.812 429.33
241.655 428.901 241.504 428.472 241.361 428.041 241.225 427.61 241.096
427.177 240.974 426.744 240.859 426.31 240.751 425.875 240.651 425.439
240.557 425.003 240.471 424.566 240.392 424.129 240.321 423.691 240.256
423.253 240.199 422.814 240.149 422.375 240.106 421.936 240.07 421.496
240.042 421.056 240.021 420.616 240.007 420.176 240.001 419.736 240.001
419.296 240.009 418.856 240.025 418.417 240.047 417.977 240.077 417.538
240.114 417.099 240.158 416.66 240.21 416.222 240.268 415.784 240.334
415.347 240.407 414.91 240.488 414.474 240.575 414.039 240.67 413.604
240.772 413.17 240.881 412.737 240.997 412.305 241.121 411.873 241.251
411.443 241.389 411.014 241.534 410.585 241.686 410.158 241.844 409.733
242.01 409.308 242.183 408.885 242.363 408.463 242.55 408.042 242.744
407.623 242.945 407.205 243.152 406.789 243.367 406.375 243.588 405.962
243.816 405.551 244.052 405.141 244.293 404.734 244.542 404.328 244.797
403.924 245.059 403.522 245.328 403.122 245.603 402.724 245.885 402.328
246.173 401.935 246.468 401.543 246.769 401.154 247.077 400.767 247.391
400.382 247.711 0 5;
#X obj 113 263 * 0.071;
#X msg 573 192 add2 0 5;
#X floatatom 165 160 5 0 0 0 - - -;
#X obj 101 224 -;
#X floatatom 177 199 5 0 0 0 - - -;
#X obj 164 228 * 0.0002;
#X obj 385 56 bng 15 250 50 0 empty empty empty 17 7 0 10 -262144 -1
-1;
#X obj 487 15 inlet;
#X obj 385 81 t b b b;
#X obj 484 43 t b a b;
#X msg 705 186 set;
#X obj 587 118 pack f f;
#X msg 592 147 set add2 \$1 \$2;
#X obj 459 83 unpack f f f f f f f f;
#X obj 353 731 outlet;
#X obj 625 32 route arc;
#X obj 208 141 - 2;
#X msg 619 2 arc 500 400 100 100 90 5 90 180;
#X connect 0 0 3 0;
#X connect 1 0 4 0;
#X connect 2 0 0 0;
#X connect 2 1 1 0;
#X connect 3 0 15 0;
#X connect 4 0 17 0;
#X connect 5 0 3 1;
#X connect 6 0 24 0;
#X connect 7 0 8 0;
#X connect 8 0 20 0;
#X connect 9 0 10 0;
#X connect 10 0 11 0;
#X connect 10 0 6 0;
#X connect 11 0 10 1;
#X connect 12 0 10 1;
#X connect 13 0 14 0;
#X connect 14 0 19 0;
#X connect 14 1 12 0;
#X connect 15 0 7 0;
#X connect 16 0 4 1;
#X connect 17 0 7 1;
#X connect 18 0 20 0;
#X connect 19 0 9 0;
#X connect 20 0 35 0;
#X connect 21 0 2 0;
#X connect 22 0 20 0;
#X connect 23 0 24 1;
#X connect 24 0 21 0;
#X connect 25 0 26 0;
#X connect 26 0 21 1;
#X connect 27 0 29 0;
#X connect 28 0 30 0;
#X connect 29 0 18 0;
#X connect 29 1 22 0;
#X connect 29 2 13 0;
#X connect 30 0 27 0;
#X connect 30 1 34 0;
#X connect 30 2 31 0;
#X connect 31 0 20 0;
#X connect 32 0 33 0;
#X connect 33 0 22 0;
#X connect 34 0 15 1;
#X connect 34 1 17 1;
#X connect 34 2 5 0;
#X connect 34 3 16 0;
#X connect 34 4 32 0;
#X connect 34 5 32 1;
#X connect 34 6 37 0;
#X connect 34 7 25 0;
#X connect 36 0 30 0;
#X connect 37 0 23 0;
#X connect 38 0 36 0;
#X restore 1096 51 pd arc;
#N canvas 80 192 1336 894 fillarc 0;
#X obj 112 317 sin;
#X obj 153 317 cos;
#X obj 112 289 t f f;
#X obj 112 342 *;
#X obj 153 343 *;
#X floatatom 184 270 5 0 0 0 - - -;
#X floatatom 100 169 5 0 60 0 - - -;
#X obj 113 464 pack f f;
#X msg 125 529 add2 \$1 \$2;
#X obj 99 95 until;
#X obj 95 133 float;
#X obj 138 134 + 1;
#X msg 144 70 0;
#X obj 107 6 bng 15 250 50 0 empty empty empty 17 7 0 10 -262144 -1
-1;
#X obj 110 33 t b b;
#X obj 109 393 + 200;
#X floatatom 228 273 5 0 0 0 - - -;
#X obj 161 389 + 300;
#X obj 563 250 delay 100;
#X msg 101 68 90;
#X msg 638 315 423.411 579.646 424.889 581.32 426.382 582.962 427.889
584.571 429.411 586.146 430.946 587.687 432.495 589.195 434.056 590.668
435.631 592.106 437.219 593.51 438.819 594.878 440.43 596.211 442.054
597.508 443.689 598.77 445.335 599.995 446.991 601.183 448.658 602.335
450.335 603.45 452.022 604.528 453.718 605.568 455.423 606.571 457.137
607.537 458.86 608.464 460.59 609.353 462.328 610.204 464.074 611.016
465.826 611.79 467.586 612.525 469.351 613.221 471.123 613.878 472.9
614.496 474.683 615.075 476.47 615.614 478.263 616.114 480.059 616.574
481.859 616.994 483.663 617.375 485.47 617.716 487.28 618.016 489.093
618.277 490.907 618.498 492.724 618.679 494.542 618.819 496.36 618.92
498.18 618.98 500 619 501.82 618.98 503.64 618.92 505.458 618.819 507.276
618.679 509.093 618.498 510.907 618.277 512.72 618.016 514.53 617.716
516.337 617.375 518.141 616.994 519.941 616.574 521.737 616.114 523.53
615.614 525.317 615.075 527.1 614.496 528.877 613.878 530.649 613.221
532.414 612.525 534.174 611.79 535.926 611.016 537.672 610.204 539.41
609.353 541.14 608.464 542.863 607.537 544.577 606.571 546.282 605.568
547.978 604.528 549.665 603.45 551.342 602.335 553.009 601.183 554.665
599.995 556.311 598.77 557.946 597.508 559.57 596.211 561.181 594.878
562.781 593.51 564.369 592.106 565.944 590.668 567.505 589.195 569.054
587.687 570.589 586.146 572.111 584.571 573.618 582.962 575.111 581.32
900 0 3;
#X obj 113 263 * 0.071;
#X msg 573 192 add2 900 0 3;
#X floatatom 165 160 5 0 0 0 - - -;
#X obj 101 224 -;
#X floatatom 177 199 5 0 0 0 - - -;
#X obj 164 228 * 0.0002;
#X obj 385 56 bng 15 250 50 0 empty empty empty 17 7 0 10 -262144 -1
-1;
#X obj 487 15 inlet;
#X obj 385 81 t b b b;
#X obj 484 43 t b a b;
#X msg 705 186 set;
#X obj 353 731 outlet;
#X obj 625 32 route arc;
#X obj 208 141 - 2;
#X msg 619 2 arc 500 400 100 100 90 5 90 180;
#X obj 568 126 pack f f f;
#X msg 591 147 set add2 \$1 \$2 \$3;
#X obj 459 83 unpack f f f f f f f f f;
#X connect 0 0 3 0;
#X connect 1 0 4 0;
#X connect 2 0 0 0;
#X connect 2 1 1 0;
#X connect 3 0 15 0;
#X connect 4 0 17 0;
#X connect 5 0 3 1;
#X connect 6 0 24 0;
#X connect 7 0 8 0;
#X connect 8 0 20 0;
#X connect 9 0 10 0;
#X connect 10 0 11 0;
#X connect 10 0 6 0;
#X connect 11 0 10 1;
#X connect 12 0 10 1;
#X connect 13 0 14 0;
#X connect 14 0 19 0;
#X connect 14 1 12 0;
#X connect 15 0 7 0;
#X connect 16 0 4 1;
#X connect 17 0 7 1;
#X connect 18 0 20 0;
#X connect 19 0 9 0;
#X connect 20 0 32 0;
#X connect 21 0 2 0;
#X connect 22 0 20 0;
#X connect 23 0 24 1;
#X connect 24 0 21 0;
#X connect 25 0 26 0;
#X connect 26 0 21 1;
#X connect 27 0 29 0;
#X connect 28 0 30 0;
#X connect 29 0 18 0;
#X connect 29 1 22 0;
#X connect 29 2 13 0;
#X connect 30 0 27 0;
#X connect 30 1 38 0;
#X connect 30 2 31 0;
#X connect 31 0 20 0;
#X connect 33 0 30 0;
#X connect 34 0 23 0;
#X connect 35 0 33 0;
#X connect 36 0 37 0;
#X connect 37 0 22 0;
#X connect 38 0 15 1;
#X connect 38 1 17 1;
#X connect 38 2 5 0;
#X connect 38 3 16 0;
#X connect 38 4 36 0;
#X connect 38 5 36 1;
#X connect 38 6 36 2;
#X connect 38 7 34 0;
#X connect 38 8 25 0;
#X restore 933 432 pd fillarc;
#N canvas 0 75 1033 894 fillcircle 0;
#X obj 112 317 sin;
#X obj 153 317 cos;
#X obj 112 289 t f f;
#X obj 112 237 -;
#X obj 112 342 *;
#X obj 153 343 *;
#X floatatom 206 186 5 0 0 0 - - -;
#X floatatom 100 169 5 0 60 0 - - -;
#X obj 113 464 pack f f;
#X msg 125 529 add2 \$1 \$2;
#X obj 99 95 until;
#X obj 95 133 float;
#X obj 138 134 + 1;
#X msg 144 70 0;
#X obj 107 6 bng 15 250 50 0 empty empty empty 17 7 0 10 -262144 -1
-1;
#X obj 110 33 t b b;
#X msg 112 211 30 \$1;
#X obj 321 59 bng 15 250 50 0 empty empty empty 17 7 0 10 -262144 -1
-1;
#X obj 109 393 + 200;
#X floatatom 256 185 5 0 0 0 - - -;
#X obj 161 389 + 300;
#X obj 541 280 delay 100;
#X msg 101 68 90;
#X obj 427 -13 inlet;
#X obj 427 40 unpack f f f f f f f;
#X obj 563 105 pack f f f;
#X msg 548 2 circle 500 400 100 100 90 900 1;
#X msg 555 234 add2 999 999 1;
#X obj 574 35 route circle;
#X msg 638 315 529.669 434.695 530.911 435.31 531.998 435.948 532.923
436.607 533.683 437.283 534.273 437.972 534.69 438.672 534.932 439.378
534.999 440.088 534.889 440.797 534.603 441.502 534.143 442.2 533.51
442.886 532.709 443.558 531.743 444.212 530.618 444.845 529.337 445.453
527.91 446.034 526.341 446.585 524.64 447.102 522.814 447.584 520.874
448.027 518.828 448.43 516.688 448.79 514.463 449.106 512.166 449.376
509.807 449.599 507.399 449.774 504.953 449.899 502.483 449.975 500
450 497.517 449.975 495.047 449.899 492.601 449.774 490.193 449.599
487.834 449.376 485.537 449.106 483.312 448.79 481.172 448.43 479.126
448.027 477.186 447.584 475.36 447.102 473.659 446.585 472.09 446.034
470.663 445.453 469.382 444.845 468.257 444.212 467.291 443.558 466.49
442.886 465.857 442.2 465.397 441.502 465.111 440.797 465.001 440.088
465.068 439.378 465.31 438.672 465.727 437.972 466.317 437.283 467.077
436.607 468.002 435.948 469.089 435.31 470.331 434.695 471.723 434.107
473.258 433.549 474.927 433.023 476.722 432.532 478.635 432.079 480.656
431.666 482.774 431.295 484.978 430.968 487.259 430.686 489.604 430.451
492.001 430.265 494.438 430.127 496.903 430.039 499.384 430.002 501.868
430.014 504.343 430.077 506.796 430.19 509.214 430.353 511.586 430.564
513.9 430.822 516.144 431.127 518.306 431.477 520.376 431.869 522.344
432.303 524.199 432.775 525.931 433.284 527.534 433.826 528.997 434.4
530.315 435.002 999 999 1;
#X obj 321 84 t b b b;
#X obj 401 14 t b a b;
#X msg 666 230 set;
#X msg 580 172 set add2 \$1 \$2 \$3;
#X obj 572 722 outlet;
#X obj 112 263 * 0.071;
#X connect 0 0 4 0;
#X connect 1 0 5 0;
#X connect 2 0 0 0;
#X connect 2 1 1 0;
#X connect 3 0 35 0;
#X connect 4 0 18 0;
#X connect 5 0 20 0;
#X connect 6 0 4 1;
#X connect 7 0 16 0;
#X connect 8 0 9 0;
#X connect 9 0 29 0;
#X connect 10 0 11 0;
#X connect 11 0 12 0;
#X connect 11 0 7 0;
#X connect 12 0 11 1;
#X connect 13 0 11 1;
#X connect 14 0 15 0;
#X connect 15 0 22 0;
#X connect 15 1 13 0;
#X connect 16 0 3 0;
#X connect 17 0 30 0;
#X connect 18 0 8 0;
#X connect 19 0 5 1;
#X connect 20 0 8 1;
#X connect 21 0 29 0;
#X connect 22 0 10 0;
#X connect 23 0 31 0;
#X connect 24 0 18 1;
#X connect 24 1 20 1;
#X connect 24 2 6 0;
#X connect 24 3 19 0;
#X connect 24 4 25 0;
#X connect 24 5 25 1;
#X connect 24 6 25 2;
#X connect 25 0 33 0;
#X connect 26 0 28 0;
#X connect 27 0 29 0;
#X connect 28 0 31 0;
#X connect 29 0 34 0;
#X connect 30 0 21 0;
#X connect 30 1 27 0;
#X connect 30 2 14 0;
#X connect 31 0 17 0;
#X connect 31 1 24 0;
#X connect 31 2 32 0;
#X connect 32 0 29 0;
#X connect 33 0 27 0;
#X connect 35 0 2 0;
#X restore 1096 321 pd fillcircle;
#X obj 96 74 route line box fillbox ellipse fillellipse dot polygon
fillpolygon fillcircle arc fillarc circle;
#N canvas 0 75 1033 894 circle 0;
#X obj 112 317 sin;
#X obj 153 317 cos;
#X obj 112 289 t f f;
#X obj 112 237 -;
#X obj 112 342 *;
#X obj 153 343 *;
#X floatatom 206 186 5 0 0 0 - - -;
#X floatatom 100 169 5 0 60 0 - - -;
#X obj 113 464 pack f f;
#X msg 125 529 add2 \$1 \$2;
#X obj 99 95 until;
#X obj 95 133 float;
#X obj 138 134 + 1;
#X msg 144 70 0;
#X obj 107 6 bng 15 250 50 0 empty empty empty 17 7 0 10 -262144 -1
-1;
#X obj 110 33 t b b;
#X msg 112 211 30 \$1;
#X obj 321 59 bng 15 250 50 0 empty empty empty 17 7 0 10 -262144 -1
-1;
#X obj 109 393 + 200;
#X floatatom 256 185 5 0 0 0 - - -;
#X obj 161 389 + 300;
#X obj 541 280 delay 100;
#X msg 101 68 90;
#X obj 427 -13 inlet;
#X msg 548 2 circle 500 400 100 100 90 900 1;
#X msg 555 234 add2 90 2;
#X obj 574 35 route circle;
#X msg 638 315 321.192 386.737 322.079 388.274 322.856 389.87 323.517
391.517 324.059 393.206 324.481 394.93 324.779 396.68 324.952 398.446
324.999 400.22 324.92 401.993 324.716 403.756 324.388 405.5 323.936
407.216 323.364 408.896 322.674 410.531 321.87 412.113 320.955 413.634
319.935 415.086 318.815 416.462 317.6 417.755 316.296 418.959 314.91
420.067 313.449 421.074 311.92 421.975 310.331 422.766 308.69 423.441
307.005 423.999 305.285 424.435 303.538 424.748 301.773 424.937 300
425 298.227 424.937 296.462 424.748 294.715 424.435 292.995 423.999
291.31 423.441 289.669 422.766 288.08 421.975 286.551 421.074 285.09
420.067 283.704 418.959 282.4 417.755 281.185 416.462 280.065 415.086
279.045 413.634 278.13 412.113 277.326 410.531 276.636 408.896 276.064
407.216 275.612 405.5 275.284 403.756 275.08 401.993 275.001 400.22
275.048 398.446 275.221 396.68 275.519 394.93 275.941 393.206 276.483
391.517 277.144 389.87 277.921 388.274 278.808 386.737 279.802 385.267
280.898 383.872 282.091 382.557 283.373 381.331 284.739 380.198 286.183
379.165 287.695 378.238 289.27 377.42 290.899 376.715 292.574 376.128
294.286 375.662 296.027 375.318 297.788 375.098 299.56 375.004 301.335
375.036 303.102 375.193 304.854 375.476 306.582 375.882 308.276 376.41
309.929 377.056 311.531 377.818 313.076 378.692 314.555 379.673 315.96
380.757 317.285 381.938 318.522 383.21 319.667 384.566 320.712 386
321.653 387.505 90 2;
#X obj 321 84 t b b b;
#X obj 401 14 t b a b;
#X msg 666 230 set;
#X obj 572 722 outlet;
#X obj 427 40 unpack f f f f f f;
#X obj 563 105 pack f f;
#X msg 580 172 set add2 \$1 \$2;
#X obj 113 262 * 0.071;
#X connect 0 0 4 0;
#X connect 1 0 5 0;
#X connect 2 0 0 0;
#X connect 2 1 1 0;
#X connect 3 0 35 0;
#X connect 4 0 18 0;
#X connect 5 0 20 0;
#X connect 6 0 4 1;
#X connect 7 0 16 0;
#X connect 8 0 9 0;
#X connect 9 0 27 0;
#X connect 10 0 11 0;
#X connect 11 0 12 0;
#X connect 11 0 7 0;
#X connect 12 0 11 1;
#X connect 13 0 11 1;
#X connect 14 0 15 0;
#X connect 15 0 22 0;
#X connect 15 1 13 0;
#X connect 16 0 3 0;
#X connect 17 0 28 0;
#X connect 18 0 8 0;
#X connect 19 0 5 1;
#X connect 20 0 8 1;
#X connect 21 0 27 0;
#X connect 22 0 10 0;
#X connect 23 0 29 0;
#X connect 24 0 26 0;
#X connect 25 0 27 0;
#X connect 26 0 29 0;
#X connect 27 0 31 0;
#X connect 28 0 21 0;
#X connect 28 1 25 0;
#X connect 28 2 14 0;
#X connect 29 0 17 0;
#X connect 29 1 32 0;
#X connect 29 2 30 0;
#X connect 30 0 27 0;
#X connect 32 0 18 1;
#X connect 32 1 20 1;
#X connect 32 2 6 0;
#X connect 32 3 19 0;
#X connect 32 4 33 0;
#X connect 32 5 33 1;
#X connect 33 0 34 0;
#X connect 34 0 25 0;
#X connect 35 0 2 0;
#X restore 1093 545 pd circle;
#X msg 1093 567 obj 50 50 drawpolygon \$181 \$182 \$1 \$2 \$3 \$4 \$5
\$6 \$7 \$8 \$9 \$10 \$11 \$12 \$13 \$14 \$15 \$16 \$17 \$18 \$19 \$20
\$21 \$22 \$23 \$24 \$25 \$26 \$27 \$28 \$29 \$30 \$31 \$32 \$33 \$34
\$35 \$36 \$37 \$38 \$39 \$40 \$41 \$42 \$43 \$44 \$45 \$46 \$47 \$48
\$49 \$50 \$51 \$52 \$53 \$54 \$55 \$56 \$57 \$58 \$59 \$60 \$61 \$62
\$63 \$64 \$65 \$66 \$67 \$68 \$69 \$70 \$71 \$72 \$73 \$74 \$75 \$76
\$77 \$78 \$79 \$80 \$81 \$82 \$83 \$84 \$85 \$86 \$87 \$88 \$89 \$90
\$91 \$92 \$93 \$94 \$95 \$96 \$97 \$98 \$99 \$100 \$101 \$102 \$103
\$104 \$105 \$106 \$107 \$108 \$109 \$110 \$111 \$112 \$113 \$114 \$115
\$116 \$117 \$118 \$119 \$120 \$121 \$122 \$123 \$124 \$125 \$126 \$127
\$128 \$129 \$130 \$131 \$132 \$133 \$134 \$135 \$136 \$137 \$138 \$139
\$140 \$141 \$142 \$143 \$144 \$145 \$146 \$147 \$148 \$149 \$150 \$151
\$152 \$153 \$154 \$155 \$156 \$157 \$158 \$159 \$160 \$161 \$162 \$163
\$164 \$165 \$166 \$167 \$168 \$169 \$170 \$171 \$172 \$173 \$174 \$175
\$176 \$177 \$178 \$179 \$180;
#X connect 1 0 19 0;
#X connect 2 0 0 0;
#X connect 3 0 0 0;
#X connect 4 0 0 0;
#X connect 5 0 0 0;
#X connect 6 0 0 0;
#X connect 7 0 10 0;
#X connect 7 0 9 0;
#X connect 7 1 9 1;
#X connect 7 1 11 0;
#X connect 7 2 9 4;
#X connect 7 3 9 5;
#X connect 8 0 0 0;
#X connect 9 0 8 0;
#X connect 10 0 9 2;
#X connect 11 0 9 3;
#X connect 12 0 0 0;
#X connect 13 0 0 0;
#X connect 14 0 0 0;
#X connect 15 0 0 0;
#X connect 16 0 15 0;
#X connect 17 0 14 0;
#X connect 18 0 14 0;
#X connect 19 0 2 0;
#X connect 19 1 3 0;
#X connect 19 2 4 0;
#X connect 19 3 5 0;
#X connect 19 4 6 0;
#X connect 19 5 7 0;
#X connect 19 6 13 0;
#X connect 19 7 12 0;
#X connect 19 8 18 0;
#X connect 19 9 16 0;
#X connect 19 10 17 0;
#X connect 19 11 20 0;
#X connect 20 0 21 0;
#X connect 21 0 0 0;
#X coords 0 820 1 819 140 100 0;
#X restore 260 -22 pd draw-objects;
#N canvas 0 50 238 200 \$0-data 0;
#X scalar 1010-template-drawthings 0 0 900 99 1 \;;
#X coords 0 0 1000 800 1000 800 2 0 0;
#X restore 0 0 pd \$0-data;
#X obj 165 -68 route new size;
#X obj 400 -26 s pd-\$0-data;
#X obj 402 -84 namecanvas \$0-object-draw;
#X obj 501 -26 s \$0-object-draw;
#X text 931 -20 Balwyn 2016;
#X msg 402 -51 donecanvasdialog 1 -1 2 0 0 \$1 \$2 \$3 \$4 0 0 \, dirty
0;
#X connect 0 0 6 0;
#X connect 6 0 3 0;
#X connect 6 1 11 0;
#X connect 6 2 4 0;
#X connect 11 0 7 0;
#X connect 11 0 9 0;
#X coords 0 0 1000 800 1000 800 2 0 0;
