#N struct display-plot-template float x float y float px1 float py1
float px2 float py2 float color;
#N canvas 372 209 664 408 10;
#N canvas 272 342 450 300 display-plot-template 0;
#X obj 28 25 struct display-plot-template float x float y float px1
float py1 float px2 float py2 float color;
#X obj 27 68 drawpolygon color 2 px1 py1 px2 py2;
#X restore 238 21 pd display-plot-template;
#N canvas 421 96 450 300 display-plot-data 0;
#X scalar display-plot-template 0 0 0 0 0 0 0 \;;
#X coords 0 0 138 80 138 80 2 0 0;
#X restore 0 0 pd display-plot-data;
#X obj 27 139 r oscOut;
#X obj 530 268 print;
#N canvas 0 23 506 300 g-set-pixel 0;
#X obj 250 204 pointer;
#X obj 24 72 t l b;
#X obj 22 120 unpack 0 0 0 0;
#X obj 31 165 + 5;
#X obj 21 237 append display-plot-template px1 py1 px2 py2;
#X msg 250 163 traverse pd-display-plot-data \, next;
#X obj 24 28 inlet;
#X obj 72 165 + 8;
#X connect 0 0 4 4;
#X connect 1 0 2 0;
#X connect 1 1 5 0;
#X connect 2 1 3 0;
#X connect 2 2 7 0;
#X connect 3 0 4 0;
#X connect 3 0 4 2;
#X connect 5 0 0 0;
#X connect 6 0 1 0;
#X connect 7 0 4 1;
#X connect 7 0 4 3;
#X restore 121 248 pd g-set-pixel;
#N canvas 423 368 828 300 g-invert-area 0;
#X obj 250 204 pointer;
#X obj 16 165 + 5;
#X obj 24 28 inlet;
#X obj 22 120 unpack 0 0 0 0 0;
#X obj 90 196 +;
#X obj 124 195 +;
#X msg 250 163 traverse pd-display-invert-data \, next;
#X obj 675 184 pointer;
#X msg 525 143 clear;
#X msg 485 142 0 0;
#X obj 485 83 t b b b;
#X obj 525 164 s pd-display-invert-data;
#X msg 675 126 traverse pd-display-invert-data \, bang, f 22;
#X obj 24 52 t l b b;
#X obj 21 237 append display-invert-template px1 py1 px2 py2;
#X obj 486 211 append display-invert-template x y;
#X obj 57 165 + 8;
#X connect 0 0 14 4;
#X connect 1 0 4 0;
#X connect 1 0 14 0;
#X connect 2 0 13 0;
#X connect 3 1 1 0;
#X connect 3 2 16 0;
#X connect 3 3 4 1;
#X connect 3 4 5 1;
#X connect 4 0 14 2;
#X connect 5 0 14 3;
#X connect 6 0 0 0;
#X connect 7 0 15 2;
#X connect 8 0 11 0;
#X connect 9 0 15 0;
#X connect 10 0 9 0;
#X connect 10 1 12 0;
#X connect 10 2 8 0;
#X connect 12 0 7 0;
#X connect 13 0 3 0;
#X connect 13 1 6 0;
#X connect 13 2 10 0;
#X connect 16 0 5 0;
#X connect 16 0 14 1;
#X restore 282 254 pd g-invert-area;
#N canvas 0 23 450 300 display-invert-data 0;
#X coords 0 0 138 80 138 80 2 0 0;
#X restore 0 0 pd display-invert-data;
#N canvas 229 355 450 300 display-invert-template 0;
#X obj 28 25 struct display-invert-template float x float y float px1
float py1 float px2 float py2;
#X obj 27 68 drawpolygon 0 1 px1 py1 px1 py2 px2 py2 px2 py1 px1 py1
;
#X restore 238 42 pd display-invert-template;
#N canvas 202 23 796 396 g-line 0;
#X obj 510 330 pointer;
#X obj 249 47 t l b;
#X obj 213 341 + 5;
#X msg 510 289 traverse pd-display-plot-data \, next, f 21;
#X obj 249 3 inlet;
#X obj 331 342 + 5;
#X obj 213 363 append display-plot-template px1 py1 px2 py2 color;
#X obj 249 95 unpack 0 0 0 0 0 0;
#X msg 427 326 0;
#X obj 427 305 route 1;
#X msg 466 326 999;
#X obj 272 341 + 8;
#X obj 391 341 + 8;
#X floatatom 151 259 5 0 0 0 - - -, f 5;
#X floatatom 91 259 5 0 0 0 - - -, f 5;
#X obj 103 146 < 0;
#X obj 70 167 spigot;
#X obj 26 167 spigot;
#X obj 59 145 >= 0;
#X obj 70 186 + 63;
#X obj 197 169 < 0;
#X obj 164 190 spigot;
#X obj 120 190 spigot;
#X obj 153 168 >= 0;
#X obj 164 210 + 63;
#X connect 0 0 6 5;
#X connect 1 0 7 0;
#X connect 1 1 3 0;
#X connect 2 0 6 0;
#X connect 3 0 0 0;
#X connect 4 0 1 0;
#X connect 5 0 6 2;
#X connect 7 1 2 0;
#X connect 7 2 18 0;
#X connect 7 2 15 0;
#X connect 7 2 16 0;
#X connect 7 2 17 0;
#X connect 7 3 5 0;
#X connect 7 4 23 0;
#X connect 7 4 20 0;
#X connect 7 4 21 0;
#X connect 7 4 22 0;
#X connect 7 5 9 0;
#X connect 8 0 6 4;
#X connect 9 0 8 0;
#X connect 9 1 10 0;
#X connect 10 0 6 4;
#X connect 11 0 6 1;
#X connect 12 0 6 3;
#X connect 13 0 12 0;
#X connect 14 0 11 0;
#X connect 15 0 16 1;
#X connect 16 0 19 0;
#X connect 17 0 14 0;
#X connect 18 0 17 1;
#X connect 19 0 14 0;
#X connect 20 0 21 1;
#X connect 21 0 24 0;
#X connect 22 0 13 0;
#X connect 23 0 22 1;
#X connect 24 0 13 0;
#X restore 217 250 pd g-line;
#N canvas 341 89 465 347 g-clear-plot 0;
#X obj 222 206 pointer;
#X msg 32 84 bang;
#X msg 222 148 traverse pd-display-plot-data \, bang, f 22;
#X obj 33 233 append display-plot-template x y;
#X msg 72 165 clear;
#X obj 72 186 s pd-display-plot-data;
#X msg 32 164 0 0;
#X obj 32 105 t b b b;
#X obj 35 38 inlet;
#X connect 0 0 3 2;
#X connect 1 0 7 0;
#X connect 2 0 0 0;
#X connect 4 0 5 0;
#X connect 6 0 3 0;
#X connect 7 0 6 0;
#X connect 7 1 2 0;
#X connect 7 2 4 0;
#X connect 8 0 1 0;
#X restore 18 245 pd g-clear-plot;
#X obj 185 291 r oscOut;
#X obj 185 318 route send;
#X obj 185 339 mrpeach/routeOSC /oled/line;
#X obj 23 168 route sendtyped send;
#N canvas 89 391 831 300 g-println 1;
#X obj 250 204 pointer;
#X obj 24 28 inlet;
#X obj 675 184 pointer;
#X msg 525 143 clear;
#X msg 485 142 0 0;
#X obj 485 83 t b b b;
#X obj 24 52 t l b b;
#X msg 675 126 traverse pd-display-println-data \, bang, f 22;
#X obj 476 211 append display-println-template x y;
#X obj 525 164 s pd-display-println-data;
#X msg 250 163 traverse pd-display-println-data \, next;
#X obj 264 256 set -symbol display-println-template s;
#X obj 15 249 set display-println-template x y;
#X obj 37 174 / 2;
#X obj 78 177 / 2;
#X obj 25 76 list split 5;
#X obj 170 108 l2s;
#X obj 21 100 unpack 0 0 0 0 0;
#X obj 12 5 zexy;
#X obj 148 52 print;
#X connect 1 0 6 0;
#X connect 1 0 19 0;
#X connect 2 0 8 2;
#X connect 3 0 9 0;
#X connect 4 0 8 0;
#X connect 5 0 4 0;
#X connect 5 1 7 0;
#X connect 5 2 3 0;
#X connect 6 0 15 0;
#X connect 6 1 10 0;
#X connect 6 2 5 0;
#X connect 7 0 2 0;
#X connect 8 0 12 2;
#X connect 8 0 11 1;
#X connect 10 0 0 0;
#X connect 13 0 12 0;
#X connect 14 0 12 1;
#X connect 15 0 17 0;
#X connect 15 1 16 0;
#X connect 16 0 11 0;
#X connect 17 1 13 0;
#X connect 17 2 14 0;
#X restore 357 236 pd g-println;
#N canvas 724 307 450 300 display-println-template 0;
#X obj 29 56 drawsymbol s x y 0;
#X obj 29 24 struct display-println-template float x float y symbol
s;
#X restore 238 63 pd display-println-template;
#N canvas 0 23 450 300 display-println-data 0;
#X coords 0 0 138 80 138 80 2 0 0;
#X restore 0 0 pd display-println-data;
#N canvas 676 61 450 300 g-clear-println 0;
#X obj 35 38 inlet;
#X msg 38 88 clear;
#X obj 33 63 bng 15 250 50 0 empty empty empty 17 7 0 10 -262144 -1
-1;
#X obj 38 109 s pd-display-println-data;
#X connect 0 0 2 0;
#X connect 1 0 3 0;
#X connect 2 0 1 0;
#X restore 19 316 pd g-clear-println;
#N canvas 743 183 450 300 g-clear-invert 0;
#X obj 35 38 inlet;
#X msg 38 88 clear;
#X obj 33 63 bng 15 250 50 0 empty empty empty 17 7 0 10 -262144 -1
-1;
#X obj 38 109 s pd-display-invert-data;
#X connect 0 0 2 0;
#X connect 1 0 3 0;
#X connect 2 0 1 0;
#X restore 22 281 pd g-clear-invert;
#X obj 32 201 mrpeach/routeOSC /oled/gClear /oled/gSetPixel /oled/gLine
/oled/gInvertArea /oled/gPrintln /oled/gBox /oled/gFlip, f 83;
#X connect 2 0 13 0;
#X connect 10 0 11 0;
#X connect 11 0 12 0;
#X connect 12 0 9 0;
#X connect 12 0 18 0;
#X connect 12 0 17 0;
#X connect 13 2 19 0;
#X connect 19 0 9 0;
#X connect 19 0 18 0;
#X connect 19 0 17 0;
#X connect 19 1 4 0;
#X connect 19 2 8 0;
#X connect 19 3 5 0;
#X connect 19 4 14 0;
#X connect 19 5 5 0;
#X connect 19 7 3 0;
#X coords 0 0 138 80 138 80 2 0 0;
