#N struct display-lines-template float x float y symbol s1 symbol s2
symbol s3 symbol s4 symbol s5 float l float v;
#N canvas 681 214 495 300 10;
#N canvas 84 394 450 300 display-lines-template 0;
#X obj 18 80 drawsymbol s1 5 5 0;
#X obj 18 100 drawsymbol s2 5 20 0;
#X obj 18 120 drawsymbol s3 5 35 0;
#X obj 18 140 drawsymbol s4 5 50 0;
#X obj 18 160 drawsymbol s5 5 65 0;
#X obj 18 34 struct display-lines-template float x float y symbol s1
symbol s2 symbol s3 symbol s4 symbol s5 float l float v;
#X obj 19 188 drawpolygon -v v 0 1 0 l 138 l;
#X restore 172 13 pd display-lines-template;
#N canvas 46 40 450 300 display-lines-data 0;
#X scalar display-lines-template 0 0      0 0 \;;
#X coords 0 0 138 80 138 80 2 0 0;
#X restore 5 5 pd display-lines-data;
#X obj 334 181 pointer;
#X msg 334 123 traverse pd-display-lines-data \, bang, f 22;
#X msg 173 143 0 0;
#X obj 174 212 append display-lines-template x y;
#X msg 173 63 bang;
#X obj 173 84 t b b;
#X text 213 62 <- just to add the struct during development;
#N canvas 77 23 1139 437 lines 0;
#X obj 17 15 zexy;
#X obj 613 364 pointer;
#X msg 613 321 traverse pd-display-lines-data \, next;
#X obj 322 385 set -symbol display-lines-template s1 s2 s3 s4 s5;
#X symbolatom 277 345 10 0 0 0 - - -, f 10;
#X symbolatom 344 345 10 0 0 0 - - -, f 10;
#X symbolatom 411 345 10 0 0 0 - - -, f 10;
#X symbolatom 478 345 10 0 0 0 - - -, f 10;
#X symbolatom 545 345 10 0 0 0 - - -, f 10;
#X obj 322 297 t b b b b b b;
#X msg 26 194 set \$1;
#X msg 174 194 set \$1;
#X msg 302 194 set \$1;
#X msg 430 194 set \$1;
#X msg 558 194 set \$1;
#X obj 322 277 bng 15 250 50 0 empty empty empty 17 7 0 10 -262144
-1 -1;
#X obj 27 92 r screenLine1;
#X obj 175 92 r screenLine2;
#X obj 307 92 r screenLine3;
#X obj 434 92 r screenLine4;
#X obj 27 119 list;
#X obj 305 119 list;
#X obj 565 117 list;
#X obj 433 117 list;
#X obj 178 119 list;
#X obj 565 92 r screenLine5;
#X obj 325 16 loadbang;
#X obj 227 16 r resetDisplay;
#X obj 27 144 l2s;
#X obj 177 144 l2s;
#X obj 306 144 l2s;
#X obj 434 144 l2s;
#X obj 565 144 l2s;
#X msg 275 50 symbol;
#X obj 707 78 r oscOut;
#X obj 707 98 route send;
#X obj 707 119 mrpeach/routeOSC /oled/line/1 /oled/line/2 /oled/line/3
/oled/line/4 /oled/line/5;
#X obj 968 151 route bang;
#X obj 707 151 route bang;
#X obj 837 151 route bang;
#X obj 772 151 route bang;
#X obj 903 151 route bang;
#X msg 707 172 symbol;
#X msg 772 172 symbol;
#X msg 837 172 symbol;
#X msg 968 172 symbol;
#X msg 903 172 symbol;
#X connect 1 0 3 5;
#X connect 2 0 1 0;
#X connect 4 0 3 0;
#X connect 5 0 3 1;
#X connect 6 0 3 2;
#X connect 7 0 3 3;
#X connect 8 0 3 4;
#X connect 9 0 4 0;
#X connect 9 1 5 0;
#X connect 9 2 6 0;
#X connect 9 3 7 0;
#X connect 9 4 8 0;
#X connect 9 5 2 0;
#X connect 10 0 4 0;
#X connect 10 0 15 0;
#X connect 11 0 5 0;
#X connect 11 0 15 0;
#X connect 12 0 6 0;
#X connect 12 0 15 0;
#X connect 13 0 7 0;
#X connect 13 0 15 0;
#X connect 14 0 8 0;
#X connect 14 0 15 0;
#X connect 15 0 9 0;
#X connect 16 0 20 0;
#X connect 17 0 24 0;
#X connect 18 0 21 0;
#X connect 19 0 23 0;
#X connect 20 0 28 0;
#X connect 21 0 30 0;
#X connect 22 0 32 0;
#X connect 23 0 31 0;
#X connect 24 0 29 0;
#X connect 25 0 22 0;
#X connect 26 0 33 0;
#X connect 27 0 33 0;
#X connect 28 0 10 0;
#X connect 29 0 11 0;
#X connect 30 0 12 0;
#X connect 31 0 13 0;
#X connect 32 0 14 0;
#X connect 33 0 4 0;
#X connect 33 0 5 0;
#X connect 33 0 6 0;
#X connect 33 0 7 0;
#X connect 33 0 8 0;
#X connect 34 0 35 0;
#X connect 35 0 36 0;
#X connect 36 0 38 0;
#X connect 36 1 40 0;
#X connect 36 2 39 0;
#X connect 36 3 41 0;
#X connect 36 4 37 0;
#X connect 37 0 45 0;
#X connect 38 0 42 0;
#X connect 39 0 44 0;
#X connect 40 0 43 0;
#X connect 41 0 46 0;
#X connect 42 0 4 0;
#X connect 42 0 15 0;
#X connect 43 0 5 0;
#X connect 43 0 15 0;
#X connect 44 0 6 0;
#X connect 44 0 15 0;
#X connect 45 0 8 0;
#X connect 45 0 15 0;
#X connect 46 0 7 0;
#X connect 46 0 15 0;
#X restore 8 95 pd lines;
#X msg 175 239 clear;
#X obj 175 260 s pd-display-lines-data;
#N canvas 37 23 719 357 invert 0;
#X obj 89 63 route send;
#X obj 89 41 r oscOut;
#X obj 265 231 pointer;
#X msg 265 210 traverse pd-display-lines-data \, next;
#X obj 89 107 + 1;
#X obj 89 128 * 15;
#X obj 89 86 mrpeach/routeOSC /oled/invertline /oled/line;
#X obj 219 107 bang;
#X obj 89 166 t f b b;
#X msg 108 189 1;
#X obj 193 171 t f b;
#X msg 219 134 0;
#X floatatom 173 218 5 0 0 0 - - -, f 5;
#X obj 88 252 set display-lines-template l v;
#X connect 0 0 6 0;
#X connect 1 0 0 0;
#X connect 2 0 13 2;
#X connect 3 0 2 0;
#X connect 4 0 5 0;
#X connect 5 0 8 0;
#X connect 6 0 4 0;
#X connect 6 1 7 0;
#X connect 7 0 11 0;
#X connect 8 0 13 0;
#X connect 8 1 9 0;
#X connect 8 2 3 0;
#X connect 9 0 12 0;
#X connect 10 0 12 0;
#X connect 10 1 3 0;
#X connect 11 0 10 0;
#X connect 12 0 13 1;
#X connect 12 0 13 0;
#X restore 8 117 pd invert;
#X connect 2 0 5 2;
#X connect 3 0 2 0;
#X connect 4 0 5 0;
#X connect 6 0 7 0;
#X connect 7 0 4 0;
#X connect 7 1 3 0;
#X connect 10 0 11 0;
#X coords 0 0 138 80 138 80 2 5 5;
