#N struct 3997-template-drawthings float x float y float c float cf
float w;
#N struct 3998-template-drawthings float x float y float c float cf
float w;
#N struct display-println-template float x float y symbol s;
#N canvas 463 85 777 563 10;
#X obj 10 350 object-draw;
#X msg 129 269 new;
#X obj 9 216 loadbang;
#X obj 30 12 r oscOut;
#X obj 30 33 route sendtyped send;
#X obj 663 312 print LINE;
#X obj 423 205 route 1;
#X msg 423 226 1;
#X msg 462 226 999;
#X obj 304 247 pack 0 0 0 0 0;
#X obj 318 184 unpack 0 0 0 0 0 0;
#X msg 304 290 box \$1 \$2 \$3 \$4 \$5 1;
#X obj 351 220 +;
#X obj 378 220 +;
#X obj 10 350 object-draw;
#X msg 331 310 new;
#X obj 304 269 t l b;
#N canvas 654 154 450 300 set-pixel 0;
#X obj 102 122 + 1;
#X obj 130 122 + 1;
#X msg 62 165 line \$1 \$2 \$3 \$4 0 1;
#X obj 76 80 unpack 0 0 0 0;
#X obj 157 101 route 1;
#X msg 157 122 1;
#X msg 196 122 999;
#X obj 62 143 pack 0 0 0 0 0;
#X obj 76 36 inlet;
#X obj 62 220 outlet;
#X connect 0 0 7 2;
#X connect 1 0 7 3;
#X connect 2 0 9 0;
#X connect 3 1 0 0;
#X connect 3 1 7 0;
#X connect 3 2 1 0;
#X connect 3 2 7 1;
#X connect 3 3 4 0;
#X connect 4 0 5 0;
#X connect 4 1 6 0;
#X connect 5 0 7 4;
#X connect 6 0 7 4;
#X connect 7 0 2 0;
#X connect 8 0 3 0;
#X restore 148 215 pd set-pixel;
#N canvas 134 162 450 300 box 0;
#X obj 208 90 route 1;
#X msg 208 111 1;
#X obj 89 132 pack 0 0 0 0 0;
#X obj 103 69 unpack 0 0 0 0 0 0;
#X msg 89 153 box \$1 \$2 \$3 \$4 \$5 1;
#X obj 136 105 +;
#X obj 163 105 +;
#X obj 103 29 inlet;
#X obj 89 240 outlet;
#X msg 247 111 999;
#X connect 0 0 1 0;
#X connect 0 1 9 0;
#X connect 1 0 2 4;
#X connect 2 0 4 0;
#X connect 3 1 5 0;
#X connect 3 1 2 0;
#X connect 3 2 6 0;
#X connect 3 2 2 1;
#X connect 3 3 5 1;
#X connect 3 4 6 1;
#X connect 3 5 0 0;
#X connect 4 0 8 0;
#X connect 5 0 2 2;
#X connect 6 0 2 3;
#X connect 7 0 3 0;
#X connect 9 0 2 4;
#X restore 518 219 pd box;
#X obj 30 66 mrpeach/routeOSC /oled/gClear /oled/gSetPixel /oled/gLine
/oled/gInvertArea /oled/gPrintln /oled/gBox /oled/gFlip /oled/gFillArea
, f 83;
#N canvas 786 197 450 300 fill-area 0;
#X obj 208 90 route 1;
#X msg 208 111 1;
#X obj 89 132 pack 0 0 0 0 0;
#X obj 103 69 unpack 0 0 0 0 0 0;
#X obj 136 105 +;
#X obj 163 105 +;
#X obj 103 29 inlet;
#X obj 89 240 outlet;
#X msg 247 111 999;
#X msg 89 153 fillbox \$1 \$2 \$3 \$4 \$5 \$5 1;
#X connect 0 0 1 0;
#X connect 0 1 8 0;
#X connect 1 0 2 4;
#X connect 2 0 9 0;
#X connect 3 1 4 0;
#X connect 3 1 2 0;
#X connect 3 2 5 0;
#X connect 3 2 2 1;
#X connect 3 3 4 1;
#X connect 3 4 5 1;
#X connect 3 5 0 0;
#X connect 4 0 2 2;
#X connect 5 0 2 3;
#X connect 6 0 3 0;
#X connect 8 0 2 4;
#X connect 9 0 7 0;
#X restore 573 219 pd fill-area;
#N canvas 724 307 450 300 display-println-template 0;
#X obj 29 56 drawsymbol s x y 0;
#X obj 29 24 struct display-println-template float x float y symbol
s;
#X restore 584 28 pd display-println-template;
#N canvas 89 391 831 300 g-println 0;
#X obj 250 204 pointer;
#X obj 24 28 inlet;
#X obj 675 184 pointer;
#X msg 525 143 clear;
#X msg 485 142 0 0;
#X obj 485 83 t b b b;
#X obj 24 52 t l b b;
#X msg 675 126 traverse pd-display-println-data \, bang, f 22;
#X obj 476 211 append display-println-template x y;
#X obj 525 164 s pd-display-println-data;
#X msg 250 163 traverse pd-display-println-data \, next;
#X obj 264 256 set -symbol display-println-template s;
#X obj 15 249 set display-println-template x y;
#X obj 37 174 / 2;
#X obj 78 177 / 2;
#X obj 25 76 list split 5;
#X obj 170 108 l2s;
#X obj 21 100 unpack 0 0 0 0 0;
#X obj 12 5 zexy;
#X obj 148 52 print;
#X connect 1 0 6 0;
#X connect 1 0 19 0;
#X connect 2 0 8 2;
#X connect 3 0 9 0;
#X connect 4 0 8 0;
#X connect 5 0 4 0;
#X connect 5 1 7 0;
#X connect 5 2 3 0;
#X connect 6 0 15 0;
#X connect 6 1 10 0;
#X connect 6 2 5 0;
#X connect 7 0 2 0;
#X connect 8 0 12 2;
#X connect 8 0 11 1;
#X connect 10 0 0 0;
#X connect 13 0 12 0;
#X connect 14 0 12 1;
#X connect 15 0 17 0;
#X connect 15 1 16 0;
#X connect 16 0 11 0;
#X connect 17 1 13 0;
#X connect 17 2 14 0;
#X restore 311 132 pd g-println;
#N canvas 676 61 450 300 g-clear-println 0;
#X obj 35 38 inlet;
#X msg 38 88 clear;
#X obj 33 63 bng 15 250 50 0 empty empty empty 17 7 0 10 -262144 -1
-1;
#X obj 38 109 s pd-display-println-data;
#X connect 0 0 2 0;
#X connect 1 0 3 0;
#X connect 2 0 1 0;
#X restore 15 174 pd g-clear-println;
#X obj 152 437 r oscOut;
#X obj 152 464 route send;
#X obj 152 485 mrpeach/routeOSC /oled/line;
#N canvas 0 23 450 300 display-println-data 0;
#X scalar display-println-template 28 5 Pulse Width \;;
#X coords 0 0 138 80 138 80 2 0 0;
#X restore 10 350 pd display-println-data;
#N canvas 350 134 930 509 line 0;
#X obj 566 363 route 1;
#X msg 566 384 1;
#X obj 447 405 pack 0 0 0 0 0;
#X obj 461 52 unpack 0 0 0 0 0 0;
#X msg 447 427 line \$1 \$2 \$3 \$4 \$5 1;
#X obj 461 11 inlet;
#X obj 447 475 outlet;
#X obj 108 166 < 0;
#X obj 75 187 spigot;
#X obj 31 187 spigot;
#X obj 64 165 >= 0;
#X obj 75 226 + 63;
#X obj 683 166 < 0;
#X obj 650 187 spigot;
#X obj 606 187 spigot;
#X obj 639 165 >= 0;
#X obj 650 227 + 63;
#X floatatom 82 257 5 0 0 0 - - -, f 5;
#X floatatom 655 263 5 0 0 0 - - -, f 5;
#X msg 605 384 999;
#X connect 0 0 1 0;
#X connect 0 1 19 0;
#X connect 1 0 2 4;
#X connect 2 0 4 0;
#X connect 3 1 2 0;
#X connect 3 2 10 0;
#X connect 3 2 7 0;
#X connect 3 2 9 0;
#X connect 3 2 8 0;
#X connect 3 3 2 2;
#X connect 3 4 15 0;
#X connect 3 4 12 0;
#X connect 3 4 14 0;
#X connect 3 4 13 0;
#X connect 3 5 0 0;
#X connect 4 0 6 0;
#X connect 5 0 3 0;
#X connect 7 0 8 1;
#X connect 8 0 11 0;
#X connect 9 0 17 0;
#X connect 10 0 9 1;
#X connect 11 0 17 0;
#X connect 12 0 13 1;
#X connect 13 0 16 0;
#X connect 14 0 18 0;
#X connect 15 0 14 1;
#X connect 16 0 18 0;
#X connect 17 0 2 1;
#X connect 18 0 2 3;
#X connect 19 0 2 4;
#X restore 239 215 pd line;
#X msg 9 269 size 128 64 138 80;
#X connect 1 0 0 0;
#X connect 1 0 14 0;
#X connect 2 0 29 0;
#X connect 2 0 1 0;
#X connect 3 0 4 0;
#X connect 4 2 19 0;
#X connect 6 0 7 0;
#X connect 6 1 8 0;
#X connect 7 0 9 4;
#X connect 8 0 9 4;
#X connect 9 0 16 0;
#X connect 10 1 12 0;
#X connect 10 1 9 0;
#X connect 10 2 13 0;
#X connect 10 2 9 1;
#X connect 10 3 12 1;
#X connect 10 4 13 1;
#X connect 10 5 6 0;
#X connect 11 0 14 0;
#X connect 12 0 9 2;
#X connect 13 0 9 3;
#X connect 15 0 14 0;
#X connect 16 0 11 0;
#X connect 16 1 15 0;
#X connect 17 0 0 0;
#X connect 18 0 0 0;
#X connect 19 0 1 0;
#X connect 19 0 23 0;
#X connect 19 1 17 0;
#X connect 19 2 28 0;
#X connect 19 3 10 0;
#X connect 19 4 22 0;
#X connect 19 5 18 0;
#X connect 19 7 20 0;
#X connect 20 0 0 0;
#X connect 24 0 25 0;
#X connect 25 0 26 0;
#X connect 26 0 1 0;
#X connect 26 0 23 0;
#X connect 28 0 0 0;
#X connect 29 0 0 0;
#X connect 29 0 14 0;
#X coords 0 0 138 80 138 80 2 10 350;
