#N canvas 562 235 450 300 10;
#X obj 47 22 r led;
#X msg 49 211 \; led-canvas color \$1 0;
#X obj 48 117 sel 0 1 2 3 4 5 6 7, f 63;
#X msg 48 147 22;
#X msg 91 147 13;
#X msg 135 148 15;
#X msg 178 146 16;
#X msg 230 149 17;
#X msg 286 149 18;
#X msg 331 158 19;
#X obj 47 66 % 8;
#X msg 376 156 0;
#X obj 182 39 loadbang;
#X msg 182 61 0;
#X obj 301 201 cnv 15 15 15 empty led-canvas empty 20 12 0 14 -258699
-66577 0;
#X connect 0 0 10 0;
#X connect 2 0 3 0;
#X connect 2 1 4 0;
#X connect 2 2 5 0;
#X connect 2 3 6 0;
#X connect 2 4 7 0;
#X connect 2 5 8 0;
#X connect 2 6 9 0;
#X connect 2 7 11 0;
#X connect 3 0 1 0;
#X connect 4 0 1 0;
#X connect 5 0 1 0;
#X connect 6 0 1 0;
#X connect 7 0 1 0;
#X connect 8 0 1 0;
#X connect 9 0 1 0;
#X connect 10 0 2 0;
#X connect 11 0 1 0;
#X connect 12 0 13 0;
#X connect 13 0 2 0;
#X coords 0 -1 1 1 17 17 2 300 200;
